<svg width="16" height="17" viewBox="0 0 16 17" fill="none" xmlns="http://www.w3.org/2000/svg">
<g clip-path="url(#clip0_1782_27667)">
<path d="M4 5.83325H2C1.46957 5.83325 0.960859 6.04397 0.585786 6.41904C0.210714 6.79411 0 7.30282 0 7.83325L0 13.1666C0 13.697 0.210714 14.2057 0.585786 14.5808C0.960859 14.9559 1.46957 15.1666 2 15.1666H4V5.83325Z" fill="#EB2229"/>
<path d="M9.3335 5.8334L9.7035 3.61474C9.76758 3.2841 9.71949 2.94153 9.56685 2.64132C9.41421 2.34111 9.16574 2.10042 8.86083 1.9574C8.51114 1.80474 8.11637 1.79127 7.75709 1.91974C7.39781 2.04822 7.10109 2.30895 6.9275 2.64874L5.3335 5.8334V15.1667H14.6668L16.0002 7.8334V5.8334H9.3335Z" fill="#EB2229"/>
</g>
<defs>
<clipPath id="clip0_1782_27667">
<rect width="16" height="16" fill="white" transform="translate(0 0.5)"/>
</clipPath>
</defs>
</svg>
