<svg width="16" height="17" viewBox="0 0 16 17" fill="none" xmlns="http://www.w3.org/2000/svg">
<g clip-path="url(#clip0_1993_2604)">
<path d="M0.194098 6.20137C0.050446 5.93492 -0.0161058 5.63371 0.00191141 5.33154C0.0199286 5.02937 0.121802 4.7382 0.296098 4.4907C0.580937 4.07278 0.962394 3.72974 1.4081 3.4907L6.40877 0.888037C6.90027 0.632457 7.44611 0.499023 8.0001 0.499023C8.55409 0.499023 9.09992 0.632457 9.59143 0.888037L14.5914 3.4927C15.0371 3.73174 15.4186 4.07478 15.7034 4.4927C15.8777 4.7402 15.9796 5.03137 15.9976 5.33354C16.0156 5.63571 15.9491 5.93692 15.8054 6.20337C15.6508 6.49592 15.4188 6.74044 15.1348 6.9103C14.8508 7.08015 14.5257 7.16884 14.1948 7.1667H1.80543C1.4742 7.16877 1.14877 7.07984 0.864624 6.90961C0.580479 6.73939 0.348537 6.4944 0.194098 6.20137ZM15.3334 15.1667C15.3334 14.8131 15.193 14.4739 14.9429 14.2239C14.6929 13.9738 14.3537 13.8334 14.0001 13.8334V8.50004H12.6668V13.8334H10.6668V8.50004H9.33343V13.8334H6.66677V8.50004H5.33343V13.8334H3.33343V8.50004H2.0001V13.8334C1.64648 13.8334 1.30734 13.9738 1.05729 14.2239C0.80724 14.4739 0.666765 14.8131 0.666765 15.1667C0.489954 15.1667 0.320384 15.2369 0.19536 15.362C0.0703357 15.487 9.77961e-05 15.6566 9.77961e-05 15.8334C9.77961e-05 16.0102 0.0703357 16.1798 0.19536 16.3048C0.320384 16.4298 0.489954 16.5 0.666765 16.5H15.3334C15.5102 16.5 15.6798 16.4298 15.8048 16.3048C15.9299 16.1798 16.0001 16.0102 16.0001 15.8334C16.0001 15.6566 15.9299 15.487 15.8048 15.362C15.6798 15.2369 15.5102 15.1667 15.3334 15.1667Z" fill="#EB2229"/>
</g>
<defs>
<clipPath id="clip0_1993_2604">
<rect width="16" height="16" fill="white" transform="translate(0 0.5)"/>
</clipPath>
</defs>
</svg>
