<svg width="12" height="12" viewBox="0 0 12 12" fill="none" xmlns="http://www.w3.org/2000/svg">
<path d="M3.66667 7.16675C3.50139 7.16675 3.36294 7.11075 3.25133 6.99875C3.13972 6.88675 3.08372 6.7483 3.08333 6.58341C3.08294 6.41853 3.13894 6.28008 3.25133 6.16808C3.36372 6.05608 3.50217 6.00008 3.66667 6.00008C3.83117 6.00008 3.96981 6.05608 4.08258 6.16808C4.19536 6.28008 4.25117 6.41853 4.25 6.58341C4.24883 6.7483 4.19283 6.88694 4.082 6.99933C3.97117 7.11172 3.83272 7.16753 3.66667 7.16675ZM6 7.16675C5.83472 7.16675 5.69628 7.11075 5.58467 6.99875C5.47306 6.88675 5.41706 6.7483 5.41667 6.58341C5.41628 6.41853 5.47228 6.28008 5.58467 6.16808C5.69706 6.05608 5.8355 6.00008 6 6.00008C6.1645 6.00008 6.30314 6.05608 6.41592 6.16808C6.52869 6.28008 6.5845 6.41853 6.58333 6.58341C6.58217 6.7483 6.52617 6.88694 6.41533 6.99933C6.3045 7.11172 6.16606 7.16753 6 7.16675ZM8.33333 7.16675C8.16806 7.16675 8.02961 7.11075 7.918 6.99875C7.80639 6.88675 7.75039 6.7483 7.75 6.58341C7.74961 6.41853 7.80561 6.28008 7.918 6.16808C8.03039 6.05608 8.16883 6.00008 8.33333 6.00008C8.49783 6.00008 8.63647 6.05608 8.74925 6.16808C8.86203 6.28008 8.91783 6.41853 8.91667 6.58341C8.9155 6.7483 8.8595 6.88694 8.74867 6.99933C8.63783 7.11172 8.49939 7.16753 8.33333 7.16675ZM1.91667 11.8334C1.59583 11.8334 1.32128 11.7193 1.093 11.491C0.864722 11.2627 0.750389 10.988 0.75 10.6667V2.50008C0.75 2.17925 0.864333 1.90469 1.093 1.67641C1.32167 1.44814 1.59622 1.3338 1.91667 1.33341H2.5V0.166748H3.66667V1.33341H8.33333V0.166748H9.5V1.33341H10.0833C10.4042 1.33341 10.6789 1.44775 10.9076 1.67641C11.1362 1.90508 11.2504 2.17964 11.25 2.50008V10.6667C11.25 10.9876 11.1359 11.2623 10.9076 11.491C10.6793 11.7197 10.4046 11.8338 10.0833 11.8334H1.91667ZM1.91667 10.6667H10.0833V4.83341H1.91667V10.6667Z" fill="#4D4D4D"/>
</svg>
