<svg width="16" height="17" viewBox="0 0 16 17" fill="none" xmlns="http://www.w3.org/2000/svg">
<g clip-path="url(#clip0_1844_2519)">
<path d="M10.6667 1.8335C10.83 1.83352 10.9876 1.89347 11.1096 2.00197C11.2316 2.11048 11.3096 2.26 11.3287 2.42216L11.3333 2.50016V3.16683H12C12.5101 3.1668 13.001 3.36171 13.3722 3.71169C13.7433 4.06166 13.9667 4.54023 13.9967 5.0495L14 5.16683V13.1668C14 13.677 13.8051 14.1678 13.4551 14.539C13.1052 14.9102 12.6266 15.1336 12.1173 15.1635L12 15.1668H4C3.48986 15.1669 2.99899 14.9719 2.62783 14.622C2.25666 14.272 2.03326 13.7934 2.00333 13.2842L2 13.1668V5.16683C1.99997 4.65669 2.19488 4.16582 2.54486 3.79466C2.89483 3.42349 3.3734 3.20009 3.88267 3.17016L4 3.16683H4.66667V2.50016C4.66686 2.33024 4.73192 2.16681 4.84857 2.04325C4.96521 1.91969 5.12464 1.84534 5.29426 1.83538C5.46389 1.82542 5.63092 1.88061 5.76122 1.98967C5.89152 2.09873 5.97526 2.25343 5.99533 2.42216L6 2.50016V3.16683H10V2.50016C10 2.32335 10.0702 2.15378 10.1953 2.02876C10.3203 1.90373 10.4899 1.8335 10.6667 1.8335ZM12.6667 6.50016H3.33333V12.9168C3.33333 13.3868 3.59067 13.7742 3.922 13.8275L4 13.8335H12C12.342 13.8335 12.624 13.4802 12.662 13.0235L12.6667 12.9168V6.50016Z" fill="#222222"/>
<path d="M5.33301 9.8335H6.66634V11.1668H5.33301V9.8335Z" fill="#222222"/>
</g>
<defs>
<clipPath id="clip0_1844_2519">
<rect width="16" height="16" fill="white" transform="translate(0 0.5)"/>
</clipPath>
</defs>
</svg>
