<svg width="12" height="12" fill="none" xmlns="http://www.w3.org/2000/svg"><path d="M3.667 7.167a.563.563 0 01-.416-.168.567.567 0 01-.168-.416c0-.164.056-.303.168-.415A.565.565 0 013.667 6c.164 0 .303.056.416.168.112.112.168.25.167.415a.575.575 0 01-.583.584zm2.333 0a.563.563 0 01-.415-.168.567.567 0 01-.168-.416c0-.164.055-.303.168-.415A.565.565 0 016 6c.165 0 .303.056.416.168.113.112.168.25.167.415A.575.575 0 016 7.167zm2.333 0a.563.563 0 01-.415-.168.567.567 0 01-.168-.416c0-.164.056-.303.168-.415A.565.565 0 018.333 6c.165 0 .303.056.416.168.113.112.169.25.168.415a.575.575 0 01-.584.584zm-6.416 4.666c-.321 0-.596-.114-.824-.342a1.126 1.126 0 01-.343-.824V2.5c0-.32.114-.595.343-.824.229-.228.503-.342.824-.343H2.5V.167h1.167v1.166h4.666V.167H9.5v1.166h.583c.321 0 .596.115.825.343.228.23.342.504.342.824v8.167c0 .32-.114.595-.342.824a1.12 1.12 0 01-.825.342H1.917zm0-1.166h8.166V4.833H1.917v5.834z" fill="#4D4D4D"/></svg>