<svg width="20" height="14" viewBox="0 0 20 14" fill="none" xmlns="http://www.w3.org/2000/svg">
<path d="M15.8333 0.333496H4.16667C3.062 0.334819 2.00296 0.774231 1.22185 1.55535C0.440735 2.33646 0.00132321 3.3955 0 4.50016L0 9.50016C0.00132321 10.6048 0.440735 11.6639 1.22185 12.445C2.00296 13.2261 3.062 13.6655 4.16667 13.6668H15.8333C16.938 13.6655 17.997 13.2261 18.7782 12.445C19.5593 11.6639 19.9987 10.6048 20 9.50016V4.50016C19.9987 3.3955 19.5593 2.33646 18.7782 1.55535C17.997 0.774231 16.938 0.334819 15.8333 0.333496ZM3.33333 11.1668C3.16852 11.1668 3.0074 11.118 2.87036 11.0264C2.73332 10.9348 2.62651 10.8047 2.56343 10.6524C2.50036 10.5001 2.48386 10.3326 2.51601 10.1709C2.54817 10.0093 2.62753 9.86078 2.74408 9.74424C2.86062 9.6277 3.00911 9.54833 3.17076 9.51617C3.33241 9.48402 3.49996 9.50052 3.65224 9.5636C3.80451 9.62667 3.93466 9.73348 4.02622 9.87052C4.11779 10.0076 4.16667 10.1687 4.16667 10.3335C4.16667 10.5545 4.07887 10.7665 3.92259 10.9228C3.76631 11.079 3.55435 11.1668 3.33333 11.1668ZM3.33333 4.50016C3.16852 4.50016 3.0074 4.45129 2.87036 4.35972C2.73332 4.26815 2.62651 4.138 2.56343 3.98573C2.50036 3.83346 2.48386 3.6659 2.51601 3.50425C2.54817 3.3426 2.62753 3.19412 2.74408 3.07757C2.86062 2.96103 3.00911 2.88166 3.17076 2.84951C3.33241 2.81735 3.49996 2.83386 3.65224 2.89693C3.80451 2.96 3.93466 3.06681 4.02622 3.20385C4.11779 3.34089 4.16667 3.50201 4.16667 3.66683C4.16667 3.88784 4.07887 4.0998 3.92259 4.25608C3.76631 4.41236 3.55435 4.50016 3.33333 4.50016ZM10 10.3335C9.34073 10.3335 8.69626 10.138 8.1481 9.77173C7.59994 9.40546 7.17269 8.88486 6.9204 8.27577C6.66811 7.66669 6.6021 6.99646 6.73072 6.34986C6.85933 5.70326 7.1768 5.10931 7.64298 4.64314C8.10915 4.17696 8.7031 3.8595 9.3497 3.73088C9.9963 3.60226 10.6665 3.66827 11.2756 3.92056C11.8847 4.17286 12.4053 4.6001 12.7716 5.14826C13.1378 5.69643 13.3333 6.34089 13.3333 7.00016C13.3333 7.88422 12.9821 8.73206 12.357 9.35718C11.7319 9.98231 10.8841 10.3335 10 10.3335ZM16.6667 11.1668C16.5018 11.1668 16.3407 11.118 16.2037 11.0264C16.0667 10.9348 15.9598 10.8047 15.8968 10.6524C15.8337 10.5001 15.8172 10.3326 15.8493 10.1709C15.8815 10.0093 15.9609 9.86078 16.0774 9.74424C16.194 9.6277 16.3424 9.54833 16.5041 9.51617C16.6657 9.48402 16.8333 9.50052 16.9856 9.5636C17.1378 9.62667 17.268 9.73348 17.3596 9.87052C17.4511 10.0076 17.5 10.1687 17.5 10.3335C17.5 10.5545 17.4122 10.7665 17.2559 10.9228C17.0996 11.079 16.8877 11.1668 16.6667 11.1668ZM16.6667 4.50016C16.5018 4.50016 16.3407 4.45129 16.2037 4.35972C16.0667 4.26815 15.9598 4.138 15.8968 3.98573C15.8337 3.83346 15.8172 3.6659 15.8493 3.50425C15.8815 3.3426 15.9609 3.19412 16.0774 3.07757C16.194 2.96103 16.3424 2.88166 16.5041 2.84951C16.6657 2.81735 16.8333 2.83386 16.9856 2.89693C17.1378 2.96 17.268 3.06681 17.3596 3.20385C17.4511 3.34089 17.5 3.50201 17.5 3.66683C17.5 3.88784 17.4122 4.0998 17.2559 4.25608C17.0996 4.41236 16.8877 4.50016 16.6667 4.50016ZM11.6667 7.00016C11.6667 7.3298 11.5689 7.65203 11.3858 7.92611C11.2026 8.20019 10.9423 8.41382 10.6378 8.53996C10.3333 8.66611 9.99815 8.69911 9.67485 8.6348C9.35155 8.5705 9.05458 8.41176 8.82149 8.17867C8.5884 7.94559 8.42967 7.64861 8.36536 7.32531C8.30105 7.00201 8.33405 6.6669 8.4602 6.36236C8.58635 6.05781 8.79997 5.79752 9.07405 5.61438C9.34813 5.43124 9.67036 5.3335 10 5.3335C10.442 5.3335 10.8659 5.50909 11.1785 5.82165C11.4911 6.13421 11.6667 6.55813 11.6667 7.00016Z" fill="#222222"/>
</svg>
