<svg width="16" height="17" viewBox="0 0 16 17" fill="none" xmlns="http://www.w3.org/2000/svg">
<g clip-path="url(#clip0_1766_2955)">
<path d="M6.57812 0.534375C5.775 0.625 5.01875 0.975 4.61875 1.44062C4.37187 1.73125 4.15625 2.16562 4.15625 2.38125C4.15625 2.43125 4.19375 2.50937 4.24687 2.56875L4.3375 2.67188H7.17187H10.0062L10.0969 2.56875C10.2062 2.44687 10.2094 2.35938 10.125 2.10938C9.98437 1.70312 9.63437 1.275 9.23437 1.01875C8.59375 0.60625 7.58437 0.425 6.57812 0.534375Z" fill="#EB2229"/>
<path d="M4.22813 3.25017C4.02188 3.3533 3.96875 3.51892 3.96875 4.03767C3.97188 4.2658 3.99062 4.55955 4.0125 4.68767C4.30625 6.3158 5.80938 7.45955 7.45 7.30955C8.75313 7.18767 9.86875 6.27205 10.2313 5.02517C10.3906 4.47205 10.4188 3.7533 10.2875 3.46267C10.1656 3.18142 10.425 3.2033 7.20312 3.19392C4.38438 3.18767 4.35938 3.18767 4.22813 3.25017ZM4.83438 4.32517C5.275 4.60955 5.85312 4.8408 6.35938 4.9408C6.69688 5.00955 7.69688 5.00017 8.03125 4.92517C8.56563 4.80955 9.08125 4.59705 9.48125 4.3283C9.59688 4.25017 9.70312 4.19392 9.7125 4.2033C9.72188 4.21267 9.71563 4.33142 9.69375 4.46892C9.51875 5.67205 8.525 6.59705 7.32188 6.6783C6.1125 6.75955 4.97188 5.91892 4.69063 4.73455C4.63125 4.49705 4.5875 4.18767 4.6125 4.18767C4.61875 4.18767 4.71875 4.25017 4.83438 4.32517Z" fill="#EB2229"/>
<path d="M3.57813 7.70948C2.72188 7.82823 1.925 8.44698 1.59375 9.25323C1.3875 9.75323 1.39063 9.69386 1.39063 12.4689V14.9845L1.45938 15.0814C1.60938 15.2939 1.40625 15.2814 4.92813 15.2814C7.3625 15.2814 8.12188 15.272 8.15 15.2439C8.17813 15.2157 8.1875 14.797 8.1875 13.5501C8.1875 11.6907 8.19375 11.622 8.39688 11.2189C8.54375 10.9282 8.89688 10.5595 9.17188 10.4157C9.58125 10.2032 9.53438 10.2064 11.3438 10.1876L12.9844 10.172L12.9813 9.98448C12.9781 9.74073 12.9 9.44698 12.7625 9.15948C12.4844 8.56886 12.0188 8.12198 11.4313 7.88136C11.0063 7.7126 10.9938 7.70948 9.8125 7.69698C8.79063 7.68448 8.69375 7.68761 8.60313 7.74073C8.54688 7.77198 8.21563 8.06886 7.8625 8.4001C7.50938 8.73136 7.21563 9.00636 7.20625 9.00948C7.19688 9.01261 6.9 8.74073 6.54688 8.40636C6.19063 8.07198 5.85625 7.77198 5.80313 7.74073C5.7125 7.69386 5.60313 7.68761 4.6875 7.69073C4.12813 7.69386 3.63125 7.70323 3.57813 7.70948ZM5.51875 9.91886C5.57188 9.95948 5.57813 10.0032 5.57813 10.2814C5.57813 10.7501 5.6625 10.7189 4.425 10.7189C3.875 10.7189 3.39063 10.7095 3.35313 10.7001C3.25 10.672 3.20938 10.5345 3.22188 10.2345C3.23125 10.0095 3.24375 9.95636 3.29375 9.91886C3.38438 9.85323 5.42813 9.85323 5.51875 9.91886Z" fill="#EB2229"/>
<path d="M9.93142 10.9376C9.57205 11.0001 9.21267 11.2688 9.05017 11.6001C8.9158 11.8751 8.90017 12.1282 8.91267 13.8938C8.92517 15.5001 8.92517 15.5188 8.99705 15.6969C9.0908 15.9344 9.2783 16.1657 9.48455 16.3001C9.8033 16.5032 9.81892 16.5032 11.8502 16.4938L13.6752 16.4844L13.9127 16.3657C14.3189 16.1657 14.5439 15.8438 14.6002 15.3719C14.6158 15.2313 14.6252 14.4313 14.6189 13.5219C14.6033 11.7438 14.6064 11.7657 14.3908 11.4501C14.2502 11.2469 14.047 11.0844 13.8158 10.9938C13.6595 10.9344 13.5689 10.9251 12.9314 10.9126L12.2189 10.9001V11.4126C12.2189 11.7688 12.2064 11.9376 12.1814 11.9626C12.1564 11.9876 12.0189 12.0001 11.7658 12.0001C11.5127 12.0001 11.3752 11.9876 11.3502 11.9626C11.3252 11.9376 11.3127 11.7688 11.3127 11.4157V10.9063L10.697 10.9094C10.3564 10.9126 10.0127 10.9251 9.93142 10.9376Z" fill="#EB2229"/>
</g>
<defs>
<clipPath id="clip0_1766_2955">
<rect width="16" height="16" fill="white" transform="translate(0 0.5)"/>
</clipPath>
</defs>
</svg>
