<svg width="88" height="107" viewBox="0 0 88 107" fill="none" xmlns="http://www.w3.org/2000/svg">
<path d="M44.4896 96.3733C68.5196 96.3733 87.9998 76.8932 87.9998 52.8632C87.9998 28.8332 68.5196 9.35303 44.4896 9.35303C20.4596 9.35303 0.979492 28.8332 0.979492 52.8632C0.979492 76.8932 20.4596 96.3733 44.4896 96.3733Z" fill="#FFE1DE"/>
<path d="M34.5465 104.206C33.8312 103.354 32.6388 103.011 31.5295 103.101C30.4204 103.192 29.534 103.687 28.5621 104.23C27.7158 104.702 27.4247 105.47 26.4114 105.822L25.5635 106.07C25.6692 106.118 26.1036 106.345 26.2191 106.36C28.5151 106.674 30.8454 106.563 33.1601 106.452C33.7968 106.422 34.5436 106.327 34.8548 105.771C35.1314 105.277 34.9102 104.639 34.5465 104.206Z" fill="#172F35"/>
<path d="M78.0144 16.7885C79.4796 10.4467 75.5264 4.11796 69.1846 2.65278C62.8429 1.1876 56.5141 5.14084 55.0489 11.4826C53.5838 17.8243 57.537 24.1531 63.8787 25.6183C70.2205 27.0835 76.5493 23.1302 78.0144 16.7885Z" fill="#EB2229"/>
<path d="M76.9356 16.6472C78.325 10.8978 74.7905 5.11053 69.0411 3.72108C63.2916 2.33163 57.5044 5.86611 56.1149 11.6156C54.7255 17.365 58.26 23.1523 64.0094 24.5417C69.7589 25.9312 75.5461 22.3967 76.9356 16.6472Z" fill="#F8F4D9"/>
<path d="M76.6316 17.6889C76.7737 17.2857 76.8915 16.8717 76.9852 16.4482H75.9376V9.01006C75.586 8.36538 75.1685 7.76231 74.6969 7.20668V16.4482H59.9941V11.7333H72.7737V5.43234C72.3792 5.14847 71.9652 4.8905 71.5329 4.66157V10.4926H63.1581V3.96533C62.7324 4.10642 62.3176 4.27146 61.9173 4.46264V10.4926H58.7534V14.4628H55.8271C55.84 14.8827 55.8748 15.297 55.9348 15.7035H58.7537V21.4922C59.1375 21.8973 59.5518 22.2726 59.9944 22.6138V17.6889H76.6316Z" fill="#FFC088"/>
<path d="M71.1447 17.8526L66.5573 12.9976L61.9702 17.8526H63.3721V22.5926H69.7428V17.8526H71.1447Z" fill="#1E1E1E"/>
<path d="M68.704 7.66278C68.704 8.87108 66.5163 10.9683 66.5163 10.9683C66.5163 10.9683 64.3286 8.87084 64.3286 7.66278C64.3286 6.45447 65.308 5.4751 66.5163 5.4751C67.7244 5.4751 68.704 6.45447 68.704 7.66278Z" fill="#EB2229"/>
<path d="M66.5282 8.61086C67.0993 8.61086 67.562 8.14791 67.562 7.57703C67.562 7.00591 67.0991 6.54297 66.5282 6.54297C65.9571 6.54297 65.4941 7.00591 65.4941 7.57703C65.4941 8.14791 65.9571 8.61086 66.5282 8.61086Z" fill="#FFC088"/>
<path d="M38.2164 29.2033C38.4802 29.0247 38.7454 28.7546 38.7026 28.4388C38.6486 28.0422 38.1716 27.8791 37.7769 27.8135C35.0951 27.3673 32.339 27.5488 29.6653 28.0424C26.992 28.5364 24.3864 29.3376 21.788 30.1372C21.3413 30.2746 20.8106 30.5123 20.7796 30.9786C20.761 31.2569 20.9492 31.5171 21.1883 31.6606C21.4274 31.8041 21.7103 31.8525 21.9869 31.8883C23.6446 32.1042 25.3273 31.9776 26.9879 31.7857C30.0211 31.435 33.0294 30.8668 35.9815 30.0873C36.7598 29.8816 37.5495 29.6546 38.2164 29.2033Z" fill="#172F35"/>
<path d="M64.1129 42.889C63.9769 40.6703 63.6875 38.4291 64.0599 36.2378C62.6834 36.0873 61.3069 35.9368 59.9307 35.7863C59.6253 37.237 59.2608 38.6753 58.84 40.0968C58.7383 39.8884 58.6394 39.6788 58.5474 39.4654C57.9855 38.1615 57.6297 36.7785 57.122 35.4525C56.6141 34.1266 55.9277 32.8256 54.847 31.9046C54.4501 31.5663 53.9342 31.2715 53.4301 31.4049C53.1087 31.4898 52.8556 31.7352 52.6457 31.9932C52.056 32.7179 51.692 33.6012 51.4282 34.4976C51.0064 35.9312 50.8237 37.4689 51.1705 38.9223C51.8404 41.7295 54.2981 43.7057 55.755 46.1971C56.153 46.8778 56.5514 47.3834 56.9258 48.0772C57.5874 49.3593 57.5191 49.6151 57.8771 50.1865C58.5588 51.2745 60.2211 51.5782 61.4751 51.303C62.6181 51.0523 62.7461 50.4822 63.2516 49.4271C64.2119 47.4223 64.2492 45.1076 64.1129 42.889Z" fill="#7D7D7D"/>
<path d="M60.9325 36.8213C60.9519 36.7554 60.9141 36.6867 60.8481 36.6673C60.783 36.6475 60.7135 36.686 60.6944 36.7516C59.7283 40.0609 59.1763 43.4869 59.0541 46.9349C59.028 47.6725 59.0246 48.4518 59.2915 49.1606C59.323 49.2441 59.3581 49.3273 59.3936 49.4103C59.5059 49.6741 59.6117 49.9231 59.5952 50.1816C59.5839 50.3592 59.4597 50.5487 59.3002 50.632C59.2567 50.6549 59.1974 50.6753 59.1357 50.6707C59.2058 50.5129 59.2692 50.3396 59.2763 50.1523C59.2847 49.9139 59.178 49.6248 58.9205 49.5154C58.8368 49.4798 58.7494 49.4699 58.6727 49.4612C58.6277 49.4558 58.5825 49.4512 58.5389 49.4401C58.1807 49.3491 58.0568 48.8654 57.9692 48.4191C57.6195 46.6404 56.707 45.0657 55.8244 43.5433L55.081 42.2604C55.0737 42.3647 55.0614 42.4557 55.0396 42.5811C55.0355 42.6048 55.0255 42.6234 55.0151 42.6416L55.6097 43.6677C56.4821 45.1727 57.3841 46.729 57.726 48.4673C57.8049 48.8697 57.9375 49.5434 58.4779 49.6807C58.5321 49.6944 58.5885 49.7015 58.6447 49.7078C58.7105 49.7153 58.7729 49.7225 58.8237 49.7441C58.9721 49.8067 59.0335 49.995 59.0282 50.1434C59.0214 50.3309 58.936 50.5136 58.854 50.6905C58.8274 50.7479 58.8479 50.8164 58.9021 50.849C58.9808 50.8965 59.066 50.9202 59.1541 50.9202C59.2397 50.9202 59.3285 50.8974 59.4152 50.8522C59.6502 50.7295 59.8261 50.4601 59.8428 50.1976C59.8629 49.8803 59.7404 49.5921 59.6221 49.3133C59.588 49.2332 59.5541 49.1533 59.5236 49.073C59.2729 48.4073 59.2768 47.6561 59.3022 46.9436C59.4237 43.5164 59.9723 40.1108 60.9325 36.8213Z" fill="#E8E8E8"/>
<path d="M54.0908 45.4055C54.7643 41.8999 55.0382 38.311 54.7972 34.7495C55.3037 36.1589 55.8143 37.5867 55.953 39.0779C56.1621 41.3205 55.4811 43.6338 54.0908 45.4055Z" fill="#172F35"/>
<path d="M60.1973 37.4224C60.585 37.6869 61.046 37.8423 61.5148 37.8663C62.0951 37.8958 62.6718 37.7269 63.1928 37.4699C63.5064 37.3152 63.8261 37.1013 63.9333 36.7686C64.0066 36.5404 63.9672 36.293 63.927 36.0566C63.8646 35.69 63.8024 35.3236 63.7399 34.9569C63.7189 34.8328 63.6949 34.7024 63.6148 34.6051C63.5069 34.4739 63.3247 34.4352 63.1565 34.4117C62.475 34.3166 61.7776 34.3372 61.1029 34.4727C60.6748 34.5586 60.2092 34.7287 60.0216 35.1232C59.9352 35.3049 59.9207 35.5114 59.9076 35.7122C59.8863 36.038 59.865 36.3639 59.8437 36.6899C59.8358 36.8107 59.8285 36.9351 59.8672 37.0498C59.9217 37.2095 60.0577 37.3271 60.1973 37.4224Z" fill="#172F35"/>
<path d="M61.5795 30.3833C61.6424 30.4097 61.7141 30.3872 61.7784 30.3644C62.2024 30.2149 62.6266 30.0651 63.0506 29.9153C62.5635 29.1237 61.982 28.3902 61.3223 27.7354C61.3678 28.5289 61.413 29.3224 61.4585 30.1159C61.4643 30.2192 61.4842 30.3434 61.5795 30.3833Z" fill="#FFC088"/>
<path d="M61.1534 33.5977H57.4968C57.2809 33.5977 57.106 33.4227 57.106 33.2068V25.8469C57.106 25.631 57.2809 25.4561 57.4968 25.4561H61.1532C61.369 25.4561 61.544 25.631 61.544 25.8469V33.2068C61.544 33.4227 61.369 33.5977 61.1534 33.5977Z" fill="#7D7D7D"/>
<path d="M57.5135 33.0647C57.6156 33.2595 57.8757 33.2934 58.0957 33.2973C58.9389 33.3115 59.7805 33.236 60.6203 33.1605C60.7125 33.1523 60.8105 33.1417 60.8824 33.0836C60.9625 33.019 60.9908 32.9113 61.0135 32.8108C61.3393 31.3688 61.4211 29.8718 61.2541 28.4026C60.1334 28.2949 59.0124 28.187 57.8917 28.0793C57.747 28.0655 57.5822 28.058 57.4774 28.1589C57.3777 28.2552 57.3738 28.411 57.3765 28.5497C57.4053 29.9598 57.4343 31.37 57.4631 32.7799C57.4653 32.8772 57.4682 32.9786 57.5135 33.0647Z" fill="#172F35"/>
<path d="M63.3946 34.4199C63.3833 33.2808 63.3639 31.3426 63.3533 30.2867C63.3477 29.7403 62.9259 29.4918 62.4494 29.3681C62.0247 29.2578 57.493 28.3217 57.4944 28.3125C57.455 28.5434 57.5477 28.781 57.6914 28.9661C57.8352 29.1513 58.0264 29.2924 58.2151 29.431C58.0019 29.584 57.7865 29.7391 57.6181 29.9402C57.4499 30.1413 57.3311 30.3968 57.3466 30.6587C57.3621 30.9205 57.5348 31.1809 57.7889 31.2465C57.6336 31.4476 57.4719 31.6644 57.4518 31.9178C57.4318 32.1712 57.6229 32.4575 57.8763 32.4362C57.7831 32.7406 57.734 33.0588 57.7311 33.3773C58.3477 33.6522 58.8116 34.2454 58.93 34.9101C59.0861 34.908 59.225 34.7969 59.2995 34.6597C59.3051 34.6495 59.3082 34.6384 59.3133 34.628C59.6952 34.9806 60.1073 35.2986 60.4074 35.7286C61.4127 35.8801 62.4678 35.77 63.3864 35.3482C63.3992 35.0387 63.3978 34.727 63.3946 34.4199Z" fill="#FFC088"/>
<path d="M17.1873 32.5469C15.6136 34.2615 15.041 36.6747 14.8963 38.9974C14.6853 42.383 15.2562 45.7703 16.0274 49.0736C16.5947 51.5032 17.2798 53.9295 18.4479 56.1344C19.616 58.3393 21.3054 60.3271 23.5072 61.501C26.8552 63.2862 30.9228 62.9922 34.628 62.1752C38.3333 61.358 41.9788 60.0611 45.7721 59.9798C47.0567 59.9522 48.5663 59.965 49.33 58.9317C49.8503 58.2277 49.8203 57.2725 49.7632 56.3989C49.5611 53.297 49.3051 50.1986 48.9958 47.1056C48.6919 44.0673 48.3322 41.0138 47.4347 38.0952C46.5368 35.1767 45.0652 32.3748 42.8188 30.3067C41.7198 29.2951 40.4254 28.4619 38.9814 28.0801C37.4759 27.682 35.8874 27.7899 34.3369 27.9358C30.9893 28.2512 27.6572 28.7313 24.3566 29.374C21.7456 29.8827 18.9861 30.5872 17.1873 32.5469Z" fill="#EB2229"/>
<path d="M15.1324 20.5167L15.8535 29.3149C15.9472 30.4566 16.9667 31.283 18.0826 31.1214L39.442 28.0262C40.4697 27.8771 41.2049 26.9391 41.1181 25.8874L40.4453 17.7557C40.3529 16.6384 39.3718 15.8188 38.2755 15.9431L16.8677 18.3719C15.8133 18.4914 15.0443 19.4422 15.1324 20.5167Z" fill="#172F35"/>
<path d="M16.5145 20.7885L17.2117 29.1562C17.3022 30.2423 18.2881 31.028 19.3669 30.8744L40.018 27.9307C41.0116 27.7891 41.7226 26.8969 41.6384 25.8964L40.9879 18.1626C40.8986 17.1 39.95 16.3205 38.89 16.4386L18.1922 18.7485C17.1729 18.8622 16.4293 19.7663 16.5145 20.7885Z" fill="#7D7D7D"/>
<path d="M39.4659 30.8486C34.6874 31.1269 29.9393 31.9245 25.3319 33.2224C25.034 33.3064 24.9326 33.6841 25.1511 33.9034C25.4851 34.2385 25.8004 34.6751 25.9093 34.8302C28.717 38.8273 28.6502 44.1659 28.7954 48.836C28.9149 52.6772 28.778 56.5204 28.6379 60.3591C28.6195 60.8646 28.633 61.4553 29.0381 61.758C29.3155 61.9652 29.691 61.9645 30.0371 61.9536C36.6587 61.7426 43.2622 60.9735 49.755 59.6575C50.0948 50.7243 49.3298 42.8032 46.5463 36.1656C46.1749 35.2799 43.5816 31.8667 42.7651 31.3609C41.8031 30.7649 40.5956 30.7828 39.4659 30.8486Z" fill="#172F35"/>
<path d="M25.3466 36.8896C24.9572 35.8911 24.3268 34.7731 23.6659 33.9295C23.005 33.0859 22.1009 32.3947 21.0535 32.1684C19.2303 31.7747 17.3139 32.9162 16.396 34.5398C17.5494 33.5372 19.2642 33.3254 20.7174 33.7983C22.1708 34.2712 23.3714 35.3529 24.2179 36.6256C25.0644 37.898 25.5872 39.3575 26.007 40.827C27.9212 47.5241 27.8392 54.626 27.2836 61.569C28.3365 53.2491 28.3936 44.7026 25.3466 36.8896Z" fill="#FFC088"/>
<path d="M54.0801 55.4038H35.8696V59.2758H54.0801V55.4038Z" fill="#172F35"/>
<path d="M54.7617 32.0021C54.6704 31.6662 54.5606 31.3194 54.3176 31.0699C53.8128 30.5516 52.9779 30.6496 52.2591 30.5661C50.9281 30.4114 49.7825 29.5064 49.0229 28.3968C46.4001 29.594 43.3426 29.8251 40.9928 27.9341C40.7465 28.1642 40.4878 28.3808 40.2192 28.5817C38.8364 29.6165 37.2087 30.28 35.5519 30.7684C34.976 30.9383 34.3623 31.1067 33.9511 31.5445C33.2292 32.3131 33.4296 33.5315 33.6433 34.5642C35.0198 41.215 34.9612 48.158 33.485 54.7867C33.2418 55.8783 33.9676 56.9467 35.0675 57.1488C41.6871 58.3653 48.5795 58.0885 55.077 56.3299C53.0735 48.4216 56.9021 39.8748 54.7617 32.0021Z" fill="#7D7D7D"/>
<path d="M45.2577 37.3097C43.8084 37.7746 42.2656 37.9471 40.7495 37.8135C40.748 37.2262 40.7466 36.6391 40.7451 36.0518C42.2421 35.9274 43.7333 35.7343 45.2127 35.4727C45.2274 36.0852 45.2427 36.6974 45.2577 37.3097Z" fill="white"/>
<path d="M45.2202 29.6065C46.3673 30.8322 46.399 32.6958 46.3714 34.3743C46.2378 42.5005 46.2891 50.6295 46.5251 58.7534C47.2501 58.6915 47.9751 58.6295 48.7002 58.5675C48.5281 50.9354 48.3561 43.3032 48.184 35.671C48.1373 33.5966 48.0867 31.4965 47.5282 29.498C46.7588 29.5341 45.9895 29.5702 45.2202 29.6065Z" fill="#172F35"/>
<path d="M47.7114 48.6761C47.5113 44.4914 47.3041 40.1639 47.6287 35.8755C47.8061 33.5268 47.347 31.6821 46.8247 29.7725C46.7437 29.7909 46.6621 29.8059 46.5806 29.8204C47.0989 31.715 47.5561 33.5428 47.3811 35.8568C47.0558 40.1606 47.2632 44.4957 47.4636 48.6879C47.5282 50.0361 47.595 51.4303 47.6434 52.8089C47.7044 54.5465 47.7676 56.3431 47.5181 58.0879C47.5084 58.1557 47.5556 58.2186 47.6236 58.2283C47.6294 58.229 47.6354 58.2295 47.6413 58.2295C47.7018 58.2295 47.755 58.185 47.7639 58.1228C48.0161 56.3564 47.9529 54.5487 47.8917 52.8002C47.8426 51.4199 47.776 50.025 47.7114 48.6761Z" fill="#7D7D7D"/>
<path d="M40.2764 28.5072C41.627 29.5599 43.3004 30.1925 45.0099 30.2958C46.7191 30.3994 48.4567 29.9735 49.9244 29.0912C49.5694 28.7884 49.294 28.3928 49.1336 27.9545C47.8781 28.5065 46.5069 28.8634 45.1401 28.7504C43.7733 28.6374 42.4113 28.0089 41.611 26.895C41.3179 27.537 40.8523 28.0995 40.2764 28.5072Z" fill="#172F35"/>
<path d="M46.3732 78.0327C45.9323 78.0327 44.2477 78.0327 43.8068 78.0327C40.5541 78.0327 37.917 83.4971 37.917 90.2375C37.917 96.9782 40.5538 102.442 43.8068 102.442C44.2477 102.442 45.9323 102.442 46.3732 102.442C49.6259 102.442 52.263 96.9779 52.263 90.2375C52.263 83.4968 49.6259 78.0327 46.3732 78.0327Z" fill="#172F35"/>
<path d="M42.5917 98.8381C44.1093 98.8381 45.3396 94.9875 45.3396 90.2376C45.3396 85.4878 44.1093 81.6372 42.5917 81.6372C41.074 81.6372 39.8438 85.4878 39.8438 90.2376C39.8438 94.9875 41.074 98.8381 42.5917 98.8381Z" fill="#7D7D7D"/>
<path d="M41.9716 95.731C43.2425 95.731 44.2728 92.5065 44.2728 88.5288C44.2728 84.5512 43.2425 81.3267 41.9716 81.3267C40.7007 81.3267 39.6704 84.5512 39.6704 88.5288C39.6704 92.5065 40.7007 95.731 41.9716 95.731Z" fill="#172F35"/>
<path d="M63.1344 67.0351C60.7098 63.9762 57.0834 61.8969 53.2189 61.3498C49.3542 60.8024 45.2932 61.7931 42.1145 64.0585C40.972 64.8726 39.915 65.881 39.3564 67.1677C38.5361 69.057 38.9022 71.2251 39.2824 73.2494C40.2872 78.5993 41.2917 83.9492 42.2965 89.2991C42.4134 89.921 42.54 90.5664 42.9158 91.0756C43.409 91.744 44.241 92.0593 45.0393 92.2885C50.9778 93.9932 57.315 92.7653 63.3682 91.5296C64.5898 91.2803 65.9355 90.951 66.6327 89.9174C67.0141 89.3516 67.1378 88.6554 67.2336 87.9797C67.7176 84.5656 67.7198 81.0834 67.2397 77.6686C66.7046 73.8609 65.5229 70.0482 63.1344 67.0351Z" fill="#172F35"/>
<path d="M43 73.3004C42.1285 71.127 40.8665 68.4003 38.4451 67.7327C36.4031 67.1698 34.1801 68.2392 32.8275 69.8695C31.475 71.4999 30.833 73.5946 30.3383 75.6543C29.0134 81.1726 29.2948 87.0914 31.1875 92.4416C36.0848 92.9851 40.0379 93.2825 45.1768 93.0684C45.4875 93.0555 45.511 87.4566 45.5006 86.917C45.4606 84.8367 45.2658 82.7599 44.92 80.7082C44.5118 78.288 43.9832 75.7714 43.0593 73.4487C43.0397 73.3998 43.0201 73.3502 43 73.3004Z" fill="#EB2229"/>
<path d="M42.9392 74.7599C44.0229 77.457 43.9958 80.4982 43.384 83.3398C42.7722 86.1814 41.606 88.8685 40.4471 91.5342C40.2528 91.9811 39.8922 92.5152 39.4217 92.3882C39.0716 92.2936 38.9288 91.8841 38.8402 91.5325C38.1757 88.899 37.5087 86.2516 37.2733 83.5458C37.0378 80.8399 37.251 78.049 38.2943 75.5411C38.6328 74.7273 39.0844 73.9171 39.8174 73.4277C40.5504 72.9384 41.6249 72.8697 42.2645 73.4764L42.9392 74.7599Z" fill="#172F35"/>
<path d="M48.3132 91.8605C46.2555 91.6328 43.9979 91.3056 42.6318 89.75C42.3663 90.6006 42.7412 91.5514 43.3682 92.1845C43.995 92.8176 44.8359 93.1881 45.6728 93.4945C51.7407 95.7158 58.448 95.256 64.8283 94.234C65.1419 93.3178 64.1062 94.5169 64.4195 93.6007C58.7959 95.2499 54.1382 92.5047 48.3132 91.8605Z" fill="#EB2229"/>
<path d="M25.812 94.1902C28.9493 96.436 32.9808 97.3921 36.6684 96.2581C33.2562 94.6498 29.5584 93.7481 25.812 94.1902Z" fill="#172F35"/>
<path d="M34.4705 99.4318C34.6397 97.6429 34.8089 95.8538 34.9783 94.0649C32.7284 94.1675 30.4676 94.0284 28.2475 93.6504C28.1176 95.3025 27.8852 96.9467 27.5522 98.5702C29.8583 98.8575 32.1643 99.1445 34.4705 99.4318Z" fill="#FFEAD8"/>
<path d="M73.55 73.2826C72.1553 69.9721 71.3478 66.421 70.8959 62.8507C70.3616 58.6295 70.3079 54.3643 70.2546 50.1097C67.0143 49.7646 63.7093 50.0359 60.5684 50.9046C62.7154 58.8592 65.3116 67.1109 69.9768 74.2973C71.1771 74.0205 72.3673 73.6543 73.55 73.2826Z" fill="#FFC088"/>
<path d="M32.0811 96.7137C32.8376 96.8388 33.5774 97.1836 34.0691 97.7722C34.9157 98.7854 34.8677 100.255 34.7008 101.565C34.5338 102.875 34.307 104.279 34.9033 105.457C31.8807 105.446 28.8577 105.583 25.8484 105.868C25.5362 103.736 25.6642 101.456 26.73 99.5833C27.7955 97.71 29.9549 96.362 32.0811 96.7137Z" fill="#0C4E5F"/>
<path d="M31.2769 96.4711C30.9015 96.5108 30.4943 96.627 30.2924 96.9459C30.1843 97.1168 30.1509 97.3232 30.1262 97.5238C29.9522 98.9405 30.1061 100.396 30.5724 101.746C30.6436 101.951 30.7396 102.174 30.9383 102.263C31.0688 102.322 31.2183 102.31 31.3611 102.301C32.3156 102.244 33.2819 102.394 34.1741 102.738C34.0737 101.329 34.1231 99.9092 34.3208 98.5105C34.3742 98.1325 34.4314 97.7177 34.2298 97.3937C34.11 97.201 33.914 97.0696 33.715 96.9607C32.9767 96.5563 32.114 96.3831 31.2769 96.4711Z" fill="#EB2229"/>
<path d="M27.1466 100.004C27.3511 99.7576 27.6371 99.5197 27.9541 99.5671C28.2184 99.6068 28.4135 99.8353 28.5388 100.071C28.7939 100.55 28.8619 101.102 28.9921 101.629C29.1223 102.156 29.344 102.701 29.796 103.001C28.9676 103.677 27.9796 104.156 26.9358 104.388C26.7318 104.434 26.5203 104.47 26.3148 104.432C26.1094 104.394 25.9088 104.268 25.8337 104.073C25.7715 103.912 25.8025 103.731 25.8345 103.561C26.0692 102.305 26.3308 100.989 27.1466 100.004Z" fill="#7D7D7D"/>
<path d="M35.1367 104.239C35.0929 103.28 34.8594 102.243 34.1085 101.645C33.2232 100.94 31.9084 101.093 30.8959 101.599C30.1215 101.985 29.4485 102.543 28.7237 103.015C27.9989 103.488 27.1824 103.885 26.317 103.885C26.0421 103.885 25.7389 103.853 25.5194 104.018C25.2711 104.205 25.2411 104.56 25.2324 104.871C25.2229 105.219 25.2239 105.599 25.4427 105.869C25.676 106.157 26.0808 106.226 26.4494 106.266C28.8036 106.519 31.18 106.364 33.5427 106.21C33.8885 106.187 34.2515 106.159 34.5421 105.97C35.0786 105.622 35.166 104.878 35.1367 104.239Z" fill="#FFC088"/>
<path d="M51.2205 17.6795C51.9821 20.3217 51.4824 23.298 49.8994 25.5467C49.5674 26.0183 49.1742 26.4721 48.6517 26.7165C47.6856 27.1688 46.5533 26.8065 45.5509 26.4409C44.4227 26.0292 43.2512 25.5898 42.4277 24.7159C41.6516 23.8924 41.2731 22.7676 41.0858 21.6517C40.8622 20.3195 40.8999 18.8757 41.5938 17.7163C42.4579 16.272 44.2008 15.5393 45.8817 15.456C47.5627 15.3728 49.217 15.8389 50.8355 16.3006L51.2205 17.6795Z" fill="#172F35"/>
<path d="M49.283 28.7492C49.1564 28.5899 49.0371 28.4254 48.9277 28.256C48.1702 27.083 47.7753 25.7191 47.3903 24.377C45.9833 24.398 44.5763 24.4193 43.1693 24.4404C42.8733 25.5681 42.262 26.5879 41.4712 27.4504C43.6315 29.1221 46.6461 29.2941 49.283 28.7492Z" fill="#FFC088"/>
<path d="M50.8037 20.7309C50.7943 20.6811 50.7841 20.6312 50.7732 20.5819C50.6917 20.2109 50.5228 19.7707 50.7118 19.4024C51.0065 18.8286 50.9598 18.689 50.5772 17.5017L50.1641 16.578C49.2031 15.5362 47.7485 15.042 46.3313 15.0268C44.9142 15.0115 43.5246 15.4321 42.2217 15.9899C41.7875 16.1758 41.3173 16.4236 41.1721 16.873C41.0896 17.1283 41.1293 17.4051 41.1724 17.6699C41.3432 18.7228 41.5514 19.7695 41.7595 20.8156C41.9272 21.6588 42.0992 22.515 42.4973 23.2768C43.0024 24.2433 43.8344 24.9909 44.6487 25.7161C44.9802 26.0114 45.3186 26.3112 45.7237 26.4925C46.4969 26.8388 47.429 26.697 48.1594 26.2677C48.8898 25.8384 49.4393 25.1537 49.8621 24.4195C50.3149 23.6333 50.6406 22.7739 50.8226 21.8848C50.9008 21.5051 50.8754 21.1111 50.8037 20.7309Z" fill="#FFC088"/>
<path d="M44.6444 19.7305C45.1671 19.1944 45.8355 18.9457 46.5491 19.0037C46.5758 18.8939 46.6295 18.7905 46.7074 18.7085C45.8839 18.6083 45.0301 18.9687 44.4873 19.5962C44.5488 19.6288 44.5998 19.6767 44.6444 19.7305Z" fill="#0C4E5F"/>
<path d="M45.8392 20.8716C45.7647 20.8791 45.6846 20.8832 45.6195 20.8457C45.5597 20.8113 45.5234 20.7472 45.5002 20.6824C45.4547 20.5548 45.4506 20.4128 45.4891 20.2828C45.5268 20.1558 45.6077 20.0384 45.7236 19.9743C45.8395 19.9101 45.9912 19.906 46.1016 19.9796C46.2371 20.0701 46.2823 20.2468 46.301 20.4087C46.3097 20.4842 46.3145 20.5628 46.2874 20.6337C46.2552 20.717 46.1814 20.7789 46.0996 20.8147C46.0178 20.8501 45.9281 20.8626 45.8392 20.8716Z" fill="#0C4E5F"/>
<path d="M46.1353 20.3389C46.092 20.263 46.0112 20.1945 45.9255 20.2117C45.8343 20.2298 45.7878 20.3324 45.7733 20.4241C45.7631 20.4892 45.7617 20.5572 45.783 20.6197C45.804 20.6821 45.8502 20.7382 45.9124 20.7598C46.0097 20.7934 46.123 20.7293 46.1646 20.6352C46.206 20.541 46.1864 20.4282 46.1353 20.3389Z" fill="#172F35"/>
<path d="M45.7414 20.4136C45.7728 20.4158 45.8031 20.3979 45.8244 20.3747C45.866 20.3292 45.8759 20.2486 45.8283 20.2094C45.7997 20.1859 45.7566 20.1835 45.724 20.2004C45.691 20.2174 45.6685 20.2513 45.6615 20.2878C45.6511 20.343 45.6855 20.41 45.7414 20.4136Z" fill="white"/>
<path d="M49.7887 18.9865C50.074 18.9865 50.3235 19.1556 50.4479 19.3962C50.4493 19.3986 50.4513 19.401 50.4527 19.4034C50.5057 19.3838 50.5415 19.3207 50.5357 19.2611C50.5287 19.1895 50.481 19.1288 50.4322 19.076C50.332 18.9674 50.2163 18.8706 50.0825 18.8079C49.9486 18.7452 49.795 18.7186 49.6507 18.7515C49.5556 18.773 49.4615 18.8253 49.4182 18.9127C49.3908 18.9678 49.3935 19.0361 49.4206 19.0901C49.5302 19.0259 49.6551 18.9865 49.7887 18.9865Z" fill="#0C4E5F"/>
<path d="M49.7146 20.2898C49.7045 20.1967 49.7403 20.1037 49.7921 20.0258C49.8656 19.9147 49.9936 19.8203 50.1236 19.8496C50.2112 19.8695 50.2794 19.9426 50.3155 20.0251C50.3516 20.1074 50.3605 20.1988 50.3673 20.2884C50.3753 20.3963 50.3736 20.5221 50.2894 20.5902C50.2177 20.648 50.1132 20.6393 50.0258 20.6112C49.8753 20.5626 49.7318 20.4464 49.7146 20.2898Z" fill="#0C4E5F"/>
<path d="M50.1888 20.1316C50.1535 20.09 50.0988 20.0542 50.0472 20.0721C50.0075 20.0859 49.9845 20.1268 49.9686 20.1658C49.9441 20.2255 49.9274 20.2906 49.9376 20.3543C49.9478 20.4179 49.9891 20.4796 50.0506 20.4992C50.1346 20.5259 50.2292 20.4615 50.2541 20.377C50.2788 20.2923 50.2459 20.1989 50.1888 20.1316Z" fill="#172F35"/>
<path d="M49.9767 20.1886C50.0007 20.1903 50.0237 20.1767 50.0399 20.1588C50.0713 20.1242 50.0791 20.063 50.0428 20.0332C50.021 20.0153 49.9883 20.0136 49.9634 20.0264C49.9385 20.0392 49.9213 20.0651 49.916 20.0927C49.908 20.1348 49.9341 20.1857 49.9767 20.1886Z" fill="white"/>
<path d="M50.1718 20.6871C49.393 20.2382 47.9788 20.4301 47.1371 20.5734C46.2954 20.7166 45.2853 21.2207 44.5257 21.6106C44.3137 21.7195 44.0903 21.8506 43.9996 22.0709C43.947 22.1984 43.9463 22.3405 43.9475 22.4786C43.9531 23.1848 43.9855 23.8907 44.0448 24.5944C44.0639 24.8236 44.0874 25.0579 44.1835 25.2667C44.282 25.4811 44.4506 25.6549 44.628 25.8107C44.8998 26.0496 45.2038 26.2592 45.5447 26.3804C46.0941 26.5759 47.5816 26.8961 48.1247 26.6836C48.6677 26.4712 48.6172 26.4494 49.0138 26.022C49.7998 25.175 50.4126 24.3065 50.8336 23.2303C51.0197 22.7548 51.2291 21.9034 51.0403 21.6379C50.898 21.438 50.3847 20.8098 50.1718 20.6871Z" fill="#172F35"/>
<path d="M47.7156 20.7545C46.5085 20.8458 45.3396 21.3457 44.4282 22.1414C44.5454 23.3026 44.5734 24.3366 44.7254 25.4977C44.865 25.7535 45.1605 26.1613 45.3614 26.3118C45.9935 26.7859 46.6198 26.8955 47.4009 27.0148C48.6318 27.2029 49.4565 26.4074 50.1305 25.3605C50.8044 24.3136 51.096 22.8144 51.2265 21.5764C50.1264 20.6923 49.123 20.6481 47.7156 20.7545Z" fill="white"/>
<path d="M44.6083 22.5003C43.6457 21.986 43.0063 21.6259 42.3882 21.2779L42.0059 21.063L42.1273 20.8467L42.5099 21.0618C43.127 21.4091 43.7652 21.7685 44.7257 22.2815L44.6083 22.5003Z" fill="white"/>
<path d="M42.577 23.6567L42.4683 23.8799L44.8877 25.0587L44.9965 24.8354L42.577 23.6567Z" fill="white"/>
<path d="M43.6166 19.2603C44.7641 18.34 48.5485 18.5573 50.885 18.3814C50.8374 18.1507 50.7239 17.9567 50.5772 17.5017L50.1641 16.578C49.2031 15.5362 47.7485 15.042 46.3313 15.0268C44.9142 15.0115 43.5246 15.4321 42.2217 15.9899C41.7875 16.1758 41.3173 16.4236 41.1721 16.873C41.0896 17.1283 41.1293 17.4051 41.1724 17.6699C41.3432 18.7228 41.5514 19.7695 41.7595 20.8157C41.9272 21.6588 42.0992 22.515 42.4973 23.2768C42.6512 23.5716 42.8383 23.8443 43.0435 24.104C42.7311 22.2028 42.4676 20.4093 43.6166 19.2603Z" fill="#172F35"/>
<path d="M43.4681 12.0334C42.1172 12.4015 40.8281 13.1094 39.9491 14.1993C39.0501 15.3142 38.6358 16.751 38.4795 18.1749C38.3376 19.4674 38.3952 20.7982 38.8079 22.0312C39.2483 23.3472 40.1173 24.547 41.3435 25.2103C41.5514 25.3229 41.7861 25.3935 42.0206 25.3623C42.6714 25.2759 42.8006 24.6097 42.8238 24.054C42.8764 22.8034 42.7721 21.431 42.4892 20.1414C42.2847 19.2092 42.9647 18.3128 43.9179 18.2681C46.4993 18.1471 49.0621 18.1212 51.6559 17.9363C51.7759 17.9278 51.9054 17.9152 51.9947 17.8346C52.1009 17.7388 52.1147 17.5793 52.1152 17.4363C52.1215 15.4698 50.8938 13.6042 49.186 12.6287C47.4785 11.6532 45.3653 11.5163 43.4681 12.0334Z" fill="#EB2229"/>
<path d="M41.8196 25.4137C41.6582 25.4137 41.5101 25.3602 41.3985 25.2605C41.3472 25.215 41.3429 25.1366 41.3884 25.0855C41.4341 25.0342 41.5125 25.0299 41.5636 25.0754C41.6567 25.1581 41.771 25.1705 41.852 25.1644C42.0091 25.154 42.1715 25.0729 42.2755 24.9527C42.472 24.7249 42.5279 24.4026 42.5592 24.0882C42.6487 23.1788 42.5778 22.2689 42.3479 21.3844C42.3237 21.291 42.2976 21.1966 42.2717 21.1017C42.0928 20.4529 41.9082 19.7821 42.1727 19.1563C42.3716 18.6858 42.8246 18.3037 43.4158 18.1074C43.9335 17.9356 44.4768 17.9158 45.0024 17.8964L50.669 17.6878C51.1523 17.6699 51.7 17.6498 52.1532 17.424C52.214 17.3938 52.2892 17.4185 52.3195 17.4799C52.35 17.5412 52.3251 17.6157 52.2638 17.6462C51.7624 17.8959 51.1864 17.917 50.6782 17.9356L45.0116 18.1442C44.5034 18.1631 43.978 18.1822 43.494 18.3429C42.9708 18.5164 42.5725 18.848 42.4014 19.2528C42.1705 19.7993 42.3435 20.4277 42.511 21.0359C42.5374 21.132 42.5638 21.2273 42.5884 21.3217C42.8258 22.2348 42.8992 23.174 42.8065 24.1127C42.7731 24.4505 42.706 24.8338 42.4638 25.1148C42.3157 25.2864 42.0931 25.3975 41.8687 25.4122C41.8518 25.4129 41.8358 25.4137 41.8196 25.4137Z" fill="#7D7D7D"/>
<path d="M46.8137 12.2209C44.5573 11.727 42.0594 12.5679 40.5609 14.3258C39.0624 16.0837 38.628 18.6833 39.4731 20.8329C39.0825 19.0015 39.4637 17.0181 40.5052 15.4618C41.5466 13.9055 43.2348 12.7966 45.0769 12.4588L46.8137 12.2209Z" fill="#FFC088"/>
<path d="M36.5192 32.8631C36.82 32.6717 37.2341 32.7477 37.5201 32.9604C37.8064 33.1731 37.9882 33.4962 38.1384 33.8195C38.9421 35.5493 39.0609 37.5342 38.8051 39.4242C38.5494 41.3143 37.9385 43.1355 37.3309 44.9435C39.6267 46.3522 42.0361 47.576 44.5275 48.5994C40.5296 49.4619 36.2414 48.9099 32.5923 47.0632C34.9339 43.1314 35.3271 38.3919 36.0439 33.8723C36.1042 33.4928 36.1954 33.0691 36.5192 32.8631Z" fill="#172F35"/>
<path d="M39.3897 53.5995C40.446 53.8649 41.5943 54.0859 42.5964 53.6597C43.412 53.3132 43.9986 52.591 44.5252 51.8786C45.0634 51.1507 45.5967 50.2064 45.2006 49.3923C44.8431 48.6578 43.9238 48.44 43.1276 48.258C40.6517 47.6927 38.2796 46.6768 36.1621 45.2749C36.4992 43.5821 37.2054 41.9898 37.7862 40.3642C38.367 38.739 38.8302 37.0205 38.6504 35.3038C38.4706 33.587 37.5348 31.8638 35.9622 31.152C35.4427 30.9168 34.8442 30.7997 34.299 30.9667C33.5287 31.2026 33.0323 31.9349 32.6372 32.6369C30.2126 36.9462 30.5983 41.4588 29.1753 46.9036C28.9658 47.7051 29.1843 48.6046 29.6054 49.318C30.0756 50.1149 30.9538 50.5653 31.7967 50.9474C34.2416 52.0562 36.7862 52.9448 39.3897 53.5995Z" fill="#7D7D7D"/>
<path d="M42.3326 51.9323C42.2503 52.4265 42.2834 52.9879 42.6295 53.35C42.8616 53.5927 43.1953 53.7048 43.5147 53.8083C43.7993 53.9005 44.0975 53.9939 44.3927 53.9458C44.6998 53.8959 44.9624 53.6987 45.187 53.4833C45.7552 52.9381 46.1671 52.2317 46.3616 51.4687C46.4713 51.0386 46.5071 50.5609 46.2965 50.1703C46.0957 49.7981 45.6949 49.5641 45.2806 49.4799C44.581 49.3379 43.8318 49.5895 43.3015 50.0675C42.7713 50.5454 42.4497 51.2284 42.3326 51.9323Z" fill="#172F35"/>
<path d="M42.2207 53.6393C42.1757 53.6393 42.1322 53.6149 42.1104 53.5721C41.977 53.3136 41.8122 53.3269 41.4804 53.3787C41.2472 53.4152 40.9824 53.4566 40.6927 53.3572C39.611 52.9864 38.4721 52.7297 37.3708 52.4816C36.2866 52.2372 35.1657 51.9845 34.0929 51.6225C32.0628 50.9374 30.0539 49.9955 29.1094 47.7633C29.0828 47.7002 29.1123 47.6273 29.1752 47.6007C29.2381 47.5739 29.3112 47.6036 29.3379 47.6665C30.2441 49.8085 32.1968 50.7208 34.172 51.3873C35.2325 51.7452 36.3471 51.9964 37.425 52.2394C38.5329 52.4891 39.6783 52.7471 40.7728 53.1222C41.0047 53.2018 41.2271 53.167 41.4417 53.1333C41.7546 53.0842 42.1094 53.029 42.3303 53.4581C42.3618 53.5191 42.3379 53.5938 42.2769 53.6251C42.2592 53.635 42.2398 53.6393 42.2207 53.6393Z" fill="#E8E8E8"/>
<path d="M29.8479 99.0098C30.5814 98.6226 31.3958 98.3426 32.2372 98.3155C33.0786 98.2884 33.9494 98.5345 34.5556 99.0819C34.7557 99.2627 34.8762 99.5659 34.8931 99.8459C34.898 99.9265 34.798 99.9664 34.74 99.9103C34.072 99.268 33.1624 98.8559 32.2062 98.8985C31.1789 98.9442 30.1938 99.3786 29.4281 100.023C29.2328 99.9025 29.2124 99.625 29.3247 99.433C29.4373 99.2414 29.6444 99.1172 29.8479 99.0098Z" fill="#172F35"/>
<path d="M29.8946 99.8706C30.6281 99.4834 31.4424 99.2034 32.2838 99.1763C33.1253 99.1492 33.996 99.3953 34.6022 99.9427C34.8023 100.124 34.9228 100.427 34.9398 100.707C34.9446 100.787 34.8447 100.827 34.7866 100.771C34.1187 100.129 33.209 99.7167 32.2529 99.7593C31.2256 99.805 30.2404 100.239 29.4749 100.883C29.2796 100.763 29.2593 100.486 29.3716 100.294C29.4836 100.102 29.691 99.9781 29.8946 99.8706Z" fill="#172F35"/>
<path d="M29.5723 101.393C30.1855 100.708 31.0802 100.293 31.9976 100.225C32.9148 100.158 33.8465 100.43 34.6078 100.946C34.7499 101.042 34.8929 101.155 34.9556 101.315C35.0183 101.475 34.9658 101.691 34.8056 101.753C34.0808 101.224 33.1929 100.922 32.2958 100.899C31.3987 100.876 30.4965 101.133 29.7458 101.625C29.6788 101.669 29.5897 101.715 29.5249 101.668C29.4402 101.606 29.5021 101.472 29.5723 101.393Z" fill="#172F35"/>
<path d="M48.1962 58.2693H40.1436C38.4801 58.5481 36.3232 57.7359 35.1035 58.7806C33.1878 60.4214 32.7762 64.3858 33.0792 66.7349C33.1338 67.1589 33.2379 67.5979 33.5416 67.9282C34.1604 68.6012 35.3002 68.5664 36.2782 68.5686C38.0791 68.5729 39.8784 68.9093 41.5288 69.5506C42.5113 69.9325 43.5573 70.4339 44.5955 70.195C45.3776 70.015 45.9606 69.4502 46.4944 68.9112C47.7441 67.6494 49.0047 66.356 49.7689 64.818C50.5332 63.2804 50.7398 61.4349 49.8667 59.9437C49.4732 59.2726 48.8859 58.7158 48.1962 58.2693Z" fill="#7D7D7D"/>
<path d="M46.6298 60.997C46.1209 60.3876 45.499 59.7403 44.705 59.7287C44.1133 59.7202 43.5833 60.0747 43.1148 60.4363C39.8526 62.9548 37.5004 66.458 35.4477 70.0318C31.1138 77.5778 27.8506 85.7381 25.7866 94.1919C29.4561 94.605 33.0933 95.3026 36.6551 96.2767C39.3139 87.0657 42.0144 77.7543 46.7726 69.4312C47.7004 67.8081 48.7432 66.0383 48.4214 64.1965C48.2089 62.978 47.4229 61.9466 46.6298 60.997Z" fill="#7D7D7D"/>
<path d="M33.4648 67.8119C33.9239 68.4384 34.7775 68.6981 35.5441 68.5732C36.3108 68.4481 36.9908 67.9883 37.5198 67.4193C38.0488 66.8504 38.4452 66.174 38.8375 65.5034C37.4225 66.9114 35.4601 67.7545 33.4648 67.8119Z" fill="#172F35"/>
<path d="M27.0417 94.421C27.0311 94.421 27.0202 94.4195 27.0096 94.4168C26.9433 94.3992 26.904 94.3312 26.9217 94.2649C28.7353 87.4756 31.5311 80.3596 35.4689 72.5103C36.4633 70.5281 37.5915 68.5028 39.4694 67.4244C39.5386 67.3847 39.5817 67.317 39.5875 67.2393C39.5931 67.1645 39.5621 67.0948 39.5028 67.0481L39.1914 66.8027C39.0413 66.6841 38.9624 66.4995 38.9803 66.3083C38.998 66.1222 39.1064 65.9601 39.2705 65.8751C39.8956 65.5506 40.564 65.3275 41.2576 65.2116C40.8391 65.1211 40.4101 65.0944 39.982 65.1315C39.8508 65.1421 39.7274 65.0664 39.679 64.9405C39.6304 64.8149 39.6691 64.6763 39.7753 64.5954C40.2247 64.2528 40.7109 63.959 41.2217 63.7194L36.8338 64.5555C36.1412 64.6874 35.4251 64.8234 34.704 64.7133C33.878 64.5875 33.2793 64.1785 33.0179 63.5619C32.9913 63.4987 33.0208 63.4259 33.0838 63.3992C33.1464 63.3721 33.2198 63.4017 33.2464 63.4648C33.5365 64.1499 34.2195 64.3885 34.7412 64.4681C35.4208 64.5717 36.1153 64.4396 36.7873 64.3118L43.0989 63.1091C43.1669 63.0965 43.2313 63.1405 43.2441 63.2078C43.257 63.2751 43.2127 63.3402 43.1454 63.353C41.9848 63.574 40.8713 64.072 39.9254 64.7929C39.8997 64.8123 39.9048 64.8379 39.9099 64.8515C39.9149 64.8648 39.9295 64.8885 39.9604 64.8844C40.4125 64.8454 40.8662 64.8737 41.3089 64.9672C41.4284 64.9923 41.5102 65.0947 41.5078 65.2159C41.5054 65.3372 41.419 65.4362 41.298 65.4562C40.6301 65.568 39.9863 65.7829 39.3845 66.0951C39.2942 66.1421 39.2369 66.2285 39.2269 66.3316C39.2168 66.4388 39.2608 66.5418 39.3445 66.6079L39.656 66.8533C39.7792 66.9503 39.846 67.1016 39.8346 67.2574C39.8227 67.4164 39.7322 67.5595 39.5926 67.6396C37.7745 68.6833 36.6678 70.673 35.6903 72.6216C31.7603 80.4551 28.9705 87.5557 27.1611 94.3285C27.1468 94.3844 27.0967 94.421 27.0417 94.421Z" fill="#E8E8E8"/>
<path d="M78.4937 58.9964C77.9363 57.1957 77.3347 55.3197 76.0052 53.9831C74.2236 52.1923 71.5146 51.7425 68.991 51.6253C64.0392 51.3957 58.9633 52.1243 54.5427 54.3672C53.0215 55.1389 51.5552 56.1152 50.5589 57.4996C49.2939 59.257 48.908 61.4924 48.764 63.653C48.264 71.1629 50.2556 78.5875 51.1022 86.0665C51.3546 88.2963 51.4354 90.7792 50.0284 92.5274C49.5952 93.0656 48.997 93.7178 49.3041 94.3366C49.5301 94.792 50.1196 94.9 50.6254 94.9496C58.0197 95.6753 65.6865 95.7 72.6327 93.063C76.5569 91.5732 80.322 89.075 82.174 85.3081C83.4685 82.6749 83.7216 79.6266 83.3968 76.7105C83.0721 73.7942 82.2001 70.9708 81.3323 68.1677C80.3861 65.1108 79.4399 62.0536 78.4937 58.9964Z" fill="#EB2229"/>
<path d="M79.588 79.2316C78.2751 76.6707 75.9093 74.5251 73.0695 74.0591C70.4544 73.6297 67.7319 74.6824 65.7753 76.4701C63.819 78.2578 62.5652 80.7085 61.8138 83.2497C61.0624 85.791 60.7785 88.4435 60.5014 91.0792C60.3819 92.2175 60.3361 93.5526 61.2071 94.2953C61.9854 94.9589 63.1441 94.834 64.1474 94.6358C67.5439 93.9643 70.8585 92.8796 73.9946 91.4129C76.7043 90.1458 79.4849 88.3482 80.3895 85.4969C81.0429 83.4375 80.5736 81.1538 79.588 79.2316Z" fill="#172F35"/>
<path d="M54.7015 58.108C54.3937 57.5831 53.6861 57.4788 53.2314 57.8832C51.8432 59.1179 51.0509 61.0067 50.8348 62.8805C50.5655 65.2158 51.0608 67.5666 51.5521 69.8629C53.1963 69.5981 52.4998 69.7102 54.1439 69.4454C53.9605 67.8555 53.8511 66.2346 54.1684 64.6667C54.4401 63.3238 55.0601 62.0107 56.0543 61.0858C56.3585 60.8029 56.3747 60.3339 56.0978 60.0241C55.5705 59.4339 55.102 58.7909 54.7015 58.108Z" fill="white"/>
<path d="M75.2572 56.3106C75.2296 56.6715 75.1647 57.0294 75.0641 57.3769C74.9844 57.6523 75.0607 57.9497 75.2719 58.1433C76.5071 59.2747 77.4466 60.7276 77.9664 62.3202C78.211 62.3964 78.4707 62.1895 78.5474 61.9451C78.6241 61.7007 78.5685 61.4367 78.5123 61.1867C78.1372 59.5196 77.1087 57.4744 75.8854 56.0868C75.6732 55.8465 75.2816 55.9907 75.2572 56.3106Z" fill="white"/>
<path d="M51.637 83.3674C51.8618 79.8821 51.1339 76.416 50.5238 72.9774C49.9135 69.5386 49.4189 65.9964 50.1032 62.5716C50.7876 59.1468 52.8608 55.8157 56.0939 54.4951C52.6888 55.5398 50.602 58.5317 49.7552 61.9913C48.9085 65.4509 49.2616 69.3266 49.9723 72.8167C50.6831 76.3066 51.4594 79.81 51.637 83.3674Z" fill="#FFC088"/>
<path d="M70.2934 53.0271C70.2764 52.0591 70.2634 51.0914 70.2513 50.1238C66.7077 49.7463 63.0934 50.043 59.6587 50.9931C59.8639 51.7532 60.0747 52.5163 60.2886 53.2805C61.1804 57.8952 65.6441 75.5938 65.6441 75.5938L70.0933 74.5293L64.2877 54.1515C66.312 53.9818 68.3233 53.5963 70.2934 53.0271Z" fill="#172F35"/>
<path d="M70.2935 52.7651C67.3851 53.6056 64.3783 54.0093 61.3833 53.8464C63.3849 60.8702 65.885 67.994 69.9772 74.2978C71.1775 74.021 72.3677 73.6548 73.5503 73.2831C72.1557 69.9726 71.3481 66.4215 70.8963 62.8512C70.4731 59.5077 70.3523 56.1367 70.2935 52.7651Z" fill="#FFC088"/>
<path d="M78.8844 47.0632C78.8844 47.7655 78.4679 48.3349 77.9539 48.3349C77.4399 48.3349 77.0234 47.7655 77.0234 47.0632C77.0234 46.3609 77.4402 45.7915 77.9539 45.7915C78.4679 45.7915 78.8844 46.3609 78.8844 47.0632Z" fill="#172F35"/>
<path d="M81.687 47.648C81.5996 47.8557 81.384 47.9868 81.1633 48.0323C80.9426 48.0778 80.7142 48.051 80.4905 48.0239C79.389 47.891 78.2871 47.7581 77.1855 47.6253C77.2122 47.2221 77.2388 46.8189 77.2654 46.4155C78.2978 46.4746 79.3302 46.5336 80.3628 46.5924C80.6955 46.6115 81.0428 46.6348 81.3296 46.8047C81.6158 46.9748 81.8162 47.3407 81.687 47.648Z" fill="#172F35"/>
<path d="M77.6842 45.8944C76.2182 46.0267 75.0904 45.5667 74.0317 44.544C73.403 43.9366 72.9199 43.162 72.1746 42.7048C70.952 41.9549 69.395 42.2503 67.9681 42.3984C65.8601 42.6172 63.6496 42.471 61.7148 43.3362C60.2878 43.9741 59.1518 45.104 57.9372 46.088C55.8422 47.7851 53.4307 49.0868 50.8677 49.9234C51.3376 50.4435 51.6881 51.079 51.9407 51.7592C53.9958 51.3403 56.1493 51.2934 58.255 51.373C61.5346 51.4972 64.826 51.8972 68.0877 51.5323C69.4286 51.3822 70.7787 51.0945 71.9556 50.4341C72.9061 49.9004 73.712 49.142 74.6381 48.5673C75.5643 47.9925 76.4016 47.7103 77.4446 48.0271C78.1091 47.5569 78.1607 46.4161 77.6842 45.8944Z" fill="#EB2229"/>
<path d="M58.3794 47.419C58.5084 47.3931 58.6342 47.3457 58.7414 47.2697C59.2724 46.8931 59.1485 46.0251 59.5923 45.5493C58.7184 46.2163 57.8446 46.8835 56.9707 47.5504C57.3957 47.337 57.9128 47.5124 58.3794 47.419Z" fill="#FFC088"/>
<path d="M54.0269 53.475C54.2899 53.3559 54.4337 53.0612 54.3567 52.7826C54.2887 52.5368 54.2698 52.2773 54.3039 52.0245C54.3436 51.7297 54.453 51.4437 54.4508 51.1462C54.4475 50.7147 54.2108 50.3217 53.9591 49.9711C53.7737 49.7129 53.5641 49.4544 53.2745 49.3235C52.8389 49.1265 52.3324 49.2606 51.8743 49.3971C51.5768 49.4856 51.2347 49.618 51.1538 49.9176C51.1163 50.0563 51.1461 50.2039 51.1863 50.3418C51.3479 50.8943 51.6845 51.394 52.1359 51.7512C52.4163 51.9731 52.766 52.1798 52.8365 52.5305C52.888 52.7882 52.7629 53.0551 52.5792 53.2432C52.3958 53.4312 52.1591 53.5568 51.9309 53.687C50.0711 54.7465 48.5221 56.2866 47.2107 57.9781C47.1766 58.0219 47.1436 58.0686 47.1129 58.1163C47.1088 58.1221 47.1035 58.1265 47.0996 58.1323C47.0243 58.2431 46.9631 58.3721 46.9733 58.5055C46.9909 58.7327 47.2116 58.8958 47.4331 58.949C47.5971 58.9885 47.8077 58.9628 47.8784 58.8094C47.9272 58.7034 47.8885 58.5802 47.8629 58.4663C47.8375 58.3544 47.8275 58.2397 47.8292 58.1253C49.5237 56.1493 51.6553 54.5488 54.0269 53.475Z" fill="white"/>
<path d="M72.5976 48.7147C73.1358 47.8566 73.076 46.762 72.9005 45.7645C72.7735 45.0409 72.5741 44.2764 72.0235 43.79C71.5158 43.3416 70.8051 43.2162 70.1311 43.1494C68.0008 42.9384 65.8305 43.1356 63.773 43.7271C62.4943 44.0947 61.15 44.713 60.5857 45.9179C59.9923 47.1848 60.3669 49.0673 61.4005 50.0101C62.434 50.953 63.8481 50.8876 65.2468 50.9201C66.881 50.9578 68.6547 50.701 70.2146 50.2132C71.8616 49.698 72.0966 49.5133 72.5976 48.7147Z" fill="white"/>
<path d="M70.7129 43.5286C71.3912 44.2137 71.7854 45.1389 71.9834 46.0824C72.1813 47.026 72.1971 47.9969 72.2121 48.9608C72.7844 47.5896 72.7856 45.9902 72.215 44.6183C72.0841 44.3035 71.9185 43.993 71.661 43.7696C71.4033 43.5462 71.0374 43.424 70.7129 43.5286Z" fill="#172F35"/>
<path d="M77.8453 48.963C78.0122 49.0223 78.195 48.9719 78.3721 48.9806C79.7428 49.0484 80.871 48.9354 81.9864 49.462C81.9157 49.4961 81.877 49.735 81.9213 49.7998C82.0478 49.9441 82.3186 49.8502 82.3765 49.6672C82.4343 49.484 82.324 49.2817 82.1662 49.1723C82.0084 49.0629 81.7098 48.9182 81.5212 48.8831C80.4177 48.6781 79.4175 48.5804 78.3138 48.3754C78.0231 48.2839 77.9309 47.9074 77.9854 47.6075C78.0396 47.3077 78.1894 47.0248 78.193 46.7201C78.1988 46.2279 77.7405 45.7996 77.2599 45.7761C77.1401 45.7703 77.0498 45.8881 77.0924 46.0002C77.3308 46.627 77.2664 47.3638 76.9276 47.9422C76.8637 48.0511 76.8974 48.191 77.0094 48.2493C77.3032 48.4025 77.5028 48.8413 77.8453 48.963Z" fill="white"/>
<path d="M78.8608 40.6204C80.287 40.0345 80.9681 38.4034 80.3823 36.9772C79.7964 35.5511 78.1652 34.8699 76.7391 35.4558C75.3129 36.0416 74.6317 37.6728 75.2176 39.0989C75.8035 40.5251 77.4346 41.2063 78.8608 40.6204Z" fill="white"/>
<path d="M77.606 46.6329C77.4862 46.6329 77.3809 46.5462 77.3613 46.424L76.8076 42.9782C76.7418 42.5658 76.7771 42.1389 76.9105 41.7437L77.967 38.6093C78.0106 38.4796 78.1519 38.4097 78.2814 38.4535C78.4114 38.4973 78.4811 38.6379 78.4373 38.7679L77.3807 41.9022C77.273 42.2214 77.2444 42.5663 77.2979 42.8995L77.8516 46.3454C77.8734 46.4806 77.7814 46.6079 77.6459 46.6297C77.6321 46.6319 77.6191 46.6329 77.606 46.6329Z" fill="white"/>
<path d="M46.2841 45.5434C48.2371 45.5434 49.8203 43.9602 49.8203 42.0073C49.8203 40.0544 48.2371 38.4712 46.2841 38.4712C44.3312 38.4712 42.748 40.0544 42.748 42.0073C42.748 43.9602 44.3312 45.5434 46.2841 45.5434Z" fill="white"/>
<path d="M52.6321 50.2373C52.5198 50.2373 52.4182 50.1609 52.3911 50.0469L51.3108 45.5164C51.1987 45.0469 50.8916 44.6452 50.4681 44.4143L46.6823 42.3493C46.5618 42.2838 46.5175 42.133 46.5831 42.0127C46.6486 41.8924 46.8001 41.8479 46.9197 41.9137L50.7055 43.9787C51.2524 44.2769 51.6488 44.7955 51.7933 45.4014L52.8736 49.9319C52.9053 50.0653 52.8233 50.1991 52.6899 50.2308C52.6708 50.2352 52.6512 50.2373 52.6321 50.2373Z" fill="white"/>
<path d="M42.6855 53.0257C42.876 53.4925 43.0665 53.9593 43.2569 54.4262C45.9426 53.2929 48.7072 52.3464 51.5241 51.5957C51.3559 51.0733 51.1033 50.5784 50.779 50.1357C48.0809 51.0989 45.3831 52.0623 42.6855 53.0257Z" fill="#172F35"/>
<path d="M49.8822 50.2771C49.8604 49.9516 50.1041 49.6435 50.4127 49.5375C50.721 49.4315 51.0719 49.5051 51.3487 49.6774C51.6256 49.8499 51.8361 50.1118 52.0048 50.3911C52.2141 50.7378 52.3683 51.1258 52.3908 51.5302C52.4009 51.715 52.3315 51.935 52.2262 52.1475C52.0062 52.5921 51.4165 52.7085 51.053 52.3709C50.4548 51.8164 49.9221 50.8702 49.8822 50.2771Z" fill="#172F35"/>
<path d="M43.7615 53.6216C44.0918 54.2513 43.9476 54.9778 43.4394 55.2442C42.9312 55.5109 42.2514 55.2167 41.9211 54.5872C41.5907 53.9578 41.735 53.231 42.2432 52.9646C42.7514 52.6979 43.4312 52.992 43.7615 53.6216Z" fill="#172F35"/>
<path d="M75.2174 78.2594C74.738 78.322 72.9065 78.5621 72.4271 78.6248C68.8905 79.088 66.8018 85.4042 67.7616 92.7327C68.7214 100.061 72.3664 105.626 75.9027 105.163C76.3821 105.101 78.2136 104.86 78.693 104.798C82.2296 104.335 84.3183 98.0184 83.3585 90.6899C82.399 83.3614 78.754 77.7962 75.2174 78.2594Z" fill="#172F35"/>
<path d="M75.0999 91.7716C75.7526 96.7549 75.0616 100.954 73.5571 101.152C72.0524 101.349 70.3034 97.4685 69.6508 92.4852C68.9981 87.502 69.689 83.3026 71.1935 83.1053C72.6985 82.9083 74.4475 86.7883 75.0999 91.7716Z" fill="#7D7D7D"/>
<path d="M80.734 78.7732C79.6711 77.2989 78.2994 76.0105 76.6415 75.2659C73.2252 73.7316 70.0177 75.0186 68.3818 78.2858C67.2393 80.5674 66.2599 83.6076 66.4073 86.1786C66.5719 89.0524 66.6353 92.2913 67.2638 95.1004C72.7158 94.462 80.5391 93.1734 85.3211 91.3889C84.643 87.0854 83.2817 82.3076 80.734 78.7732Z" fill="#EB2229"/>
<path d="M70.7371 76.233C69.7541 76.7621 68.9874 77.6807 68.6426 78.7423C69.0828 78.224 69.8666 78.0839 70.5128 78.2961C71.1589 78.5081 71.6729 79.0189 72.0245 79.6009C72.3762 80.183 72.5843 80.8383 72.7895 81.4866C73.7943 84.6609 74.7991 87.8352 75.8038 91.0098C75.9333 91.4185 76.0746 91.8469 76.3895 92.1382C76.9792 92.6839 77.9061 92.5414 78.6897 92.364C78.286 92.4504 77.8669 92.2224 77.6096 91.8996C77.3524 91.5768 77.2241 91.1727 77.1024 90.778C75.7854 86.511 74.6088 82.2007 73.5748 77.8564C73.4105 77.1657 73.1898 76.3928 72.563 76.059C72.0006 75.7597 71.2983 75.931 70.7371 76.233Z" fill="#FFC088"/>
<path d="M67.7715 83.8117C67.4722 87.5344 68.7678 91.1709 69.6492 94.8002C69.8246 95.5231 69.9919 96.2679 70.4023 96.8882C70.813 97.5087 71.5327 97.9861 72.2691 97.8814C73.0771 97.7664 73.6569 96.9823 73.8034 96.1796C73.9498 95.3766 73.7579 94.5551 73.5669 93.7615C72.5779 89.6492 71.5888 85.5369 70.5998 81.4244C70.0528 80.8663 69.0447 81.0592 68.5169 81.6354C67.9891 82.2118 67.8339 83.0329 67.7715 83.8117Z" fill="#172F35"/>
<path d="M71.4711 93.6219C71.4711 95.2665 71.0128 96.5997 70.4475 96.5997C69.8822 96.5997 69.4238 95.2665 69.4238 93.6219C69.4238 91.9772 69.8822 90.644 70.4475 90.644C71.013 90.644 71.4711 91.9772 71.4711 93.6219Z" fill="#7D7D7D"/>
<path d="M72.3593 96.9123C72.5011 97.0848 72.7664 97.1194 72.9726 97.0337C73.1787 96.9481 73.3305 96.7642 73.4312 96.565C73.7496 95.9343 73.6136 95.1791 73.4549 94.4906C72.565 90.6287 71.1929 86.8799 70.5119 82.9757C70.4553 82.6512 70.3979 82.3124 70.2019 82.0476C70.0059 81.7829 69.6233 81.6239 69.3375 81.7875C69.1412 81.8998 69.0408 82.1343 69.0292 82.3603C69.0178 82.5861 69.081 82.8085 69.1422 83.0261C69.7893 85.3229 70.2917 87.6604 70.6457 90.0201C71.1442 90.1491 71.4642 90.628 71.6895 91.0909C72.4431 92.64 72.6633 94.4427 72.3042 96.1275C72.2478 96.3937 72.1865 96.7022 72.3593 96.9123Z" fill="#7D7D7D"/>
<path d="M69.8983 90.3296C69.5593 90.749 69.3088 91.2395 69.1677 91.7603C69.1222 91.1984 69.4165 90.6224 69.8983 90.3296Z" fill="#7D7D7D"/>
<path d="M50.2544 52.7602C50.0814 52.2501 49.783 50.937 49.3031 50.6923C48.7052 50.3871 48.006 50.3535 47.3488 50.3162C46.6516 50.2768 45.9401 50.1865 45.2501 50.3407C44.7313 50.4568 44.3175 50.6843 43.968 51.0851C43.5958 51.512 43.3882 51.8425 43.4097 52.4086C43.4313 52.9746 44.3642 53.9605 44.9302 53.982C44.763 54.0617 44.7148 54.2906 44.7775 54.4651C44.8402 54.6393 44.9825 54.771 45.1197 54.8954C45.4251 55.172 45.7307 55.4486 46.0362 55.7249C46.2602 55.9277 46.5001 56.139 46.797 56.1966C47.1752 56.2702 47.5518 56.078 47.872 55.8636C48.4453 55.4793 49.089 55.2092 49.5101 54.6625C50.0144 54.0079 50.5199 53.5426 50.2544 52.7602Z" fill="#FFC088"/>
</svg>
