<svg width="20" height="20" viewBox="0 0 20 20" fill="none" xmlns="http://www.w3.org/2000/svg">
<path d="M1.66675 14.8917C1.44574 14.8917 1.23378 14.9795 1.0775 15.1357C0.921217 15.292 0.83342 15.504 0.83342 15.725V16.975C0.83342 17.0302 0.855369 17.0832 0.894439 17.1223C0.933509 17.1614 0.9865 17.1833 1.04175 17.1833H3.95842C4.01367 17.1833 4.06666 17.1614 4.10573 17.1223C4.1448 17.0832 4.16675 17.0302 4.16675 16.975V15.725C4.16675 15.504 4.07896 15.292 3.92268 15.1357C3.76639 14.9795 3.55443 14.8917 3.33342 14.8917H1.66675ZM6.66675 12.3917C6.44574 12.3917 6.23378 12.4795 6.0775 12.6357C5.92122 12.792 5.83342 13.004 5.83342 13.225V16.975C5.83342 17.0302 5.85537 17.0832 5.89444 17.1223C5.93351 17.1614 5.9865 17.1833 6.04175 17.1833H8.95842C9.01367 17.1833 9.06666 17.1614 9.10573 17.1223C9.1448 17.0832 9.16675 17.0302 9.16675 16.975V13.225C9.16675 13.004 9.07896 12.792 8.92268 12.6357C8.76639 12.4795 8.55443 12.3917 8.33342 12.3917H6.66675ZM11.6668 9.47499C11.4457 9.47499 11.2338 9.56279 11.0775 9.71907C10.9212 9.87535 10.8334 10.0873 10.8334 10.3083V16.975C10.8334 17.0302 10.8554 17.0832 10.8944 17.1223C10.9335 17.1614 10.9865 17.1833 11.0418 17.1833H13.9584C14.0137 17.1833 14.0667 17.1614 14.1057 17.1223C14.1448 17.0832 14.1668 17.0302 14.1668 16.975V10.3083C14.1668 10.0873 14.079 9.87535 13.9227 9.71907C13.7664 9.56279 13.5544 9.47499 13.3334 9.47499H11.6668ZM16.0418 17.1833H18.9584C19.0137 17.1833 19.0667 17.1614 19.1057 17.1223C19.1448 17.0832 19.1668 17.0302 19.1668 16.975V6.97499C19.1668 6.75398 19.079 6.54202 18.9227 6.38574C18.7664 6.22946 18.5544 6.14166 18.3334 6.14166H16.6668C16.4457 6.14166 16.2338 6.22946 16.0775 6.38574C15.9212 6.54202 15.8334 6.75398 15.8334 6.97499V16.975C15.8334 17.0302 15.8554 17.0832 15.8944 17.1223C15.9335 17.1614 15.9865 17.1833 16.0418 17.1833ZM15.0584 3.50833L15.3168 3.89166C15.3734 3.97671 15.4502 4.04636 15.5404 4.09436C15.6306 4.14236 15.7313 4.1672 15.8334 4.16666C15.9395 4.16281 16.0428 4.13164 16.1333 4.07617C16.2239 4.02069 16.2985 3.94278 16.3501 3.84999L18.0168 0.933325C18.078 0.834459 18.1105 0.720462 18.1105 0.604159C18.1105 0.487855 18.078 0.373858 18.0168 0.274992C17.9552 0.17696 17.8666 0.0988351 17.7616 0.0500402C17.6566 0.00124535 17.5397 -0.0161361 17.4251 -8.00332e-06L14.0918 0.416659C13.9861 0.430015 13.8857 0.470124 13.7999 0.533184C13.7142 0.596243 13.6459 0.680162 13.6017 0.776985C13.5575 0.873808 13.5387 0.980326 13.5472 1.08644C13.5556 1.19255 13.5911 1.29474 13.6501 1.38333L13.9001 1.76666C13.9155 1.78889 13.9262 1.81402 13.9316 1.84051C13.937 1.867 13.937 1.89432 13.9315 1.9208C13.9261 1.94729 13.9153 1.97239 13.8999 1.99459C13.8844 2.0168 13.8647 2.03564 13.8418 2.04999L2.04175 9.93333C1.95015 9.99387 1.87141 10.0719 1.81007 10.163C1.74872 10.2541 1.70598 10.3563 1.6843 10.464C1.66261 10.5716 1.66242 10.6825 1.68372 10.7902C1.70502 10.8979 1.7474 11.0004 1.80842 11.0917C1.88486 11.2048 1.98791 11.2973 2.10852 11.3613C2.22912 11.4252 2.36358 11.4585 2.50009 11.4583C2.66392 11.4602 2.82422 11.4107 2.95842 11.3167L14.7668 3.44999C14.7896 3.43441 14.8154 3.42355 14.8426 3.41804C14.8697 3.41254 14.8977 3.4125 14.9248 3.41793C14.952 3.42336 14.9778 3.43415 15.0007 3.44968C15.0237 3.4652 15.0433 3.48514 15.0584 3.50833ZM0.83342 20H19.1668C19.3648 19.9995 19.5562 19.9286 19.7066 19.7999C19.8571 19.6712 19.9568 19.4931 19.9879 19.2975C20.019 19.1019 19.9794 18.9017 19.8763 18.7327C19.7732 18.5636 19.6132 18.4368 19.4251 18.375C19.3417 18.3476 19.2545 18.3335 19.1668 18.3333H0.83342C0.745652 18.3335 0.658466 18.3476 0.575086 18.375C0.386971 18.4368 0.22702 18.5636 0.123892 18.7327C0.0207647 18.9017 -0.0187991 19.1019 0.0122898 19.2975C0.0433788 19.4931 0.143089 19.6712 0.293554 19.7999C0.444019 19.9286 0.635405 19.9995 0.83342 20Z" fill="white"/>
</svg>
