<svg width="16" height="17" viewBox="0 0 16 17" fill="none" xmlns="http://www.w3.org/2000/svg">
<g clip-path="url(#clip0_1766_2790)">
<path d="M6 8.5C3.794 8.5 2 6.706 2 4.5C2 2.294 3.794 0.5 6 0.5C8.206 0.5 10 2.294 10 4.5C10 6.706 8.206 8.5 6 8.5ZM8.84667 13.4867C8.30467 14.0287 8 14.7633 8 15.53V16.5H8.97C9.73667 16.5 10.4713 16.1953 11.0133 15.6533L15.5513 11.1153C16.1493 10.5173 16.1493 9.54667 15.5513 8.94867C14.9533 8.35067 13.9827 8.35067 13.3847 8.94867L8.84667 13.4867ZM6.66667 15.53C6.66667 14.402 7.106 13.3413 7.90333 12.544L9.48733 10.96C8.50333 10.2533 7.30133 9.83267 6 9.83267C2.692 9.83333 0 12.5253 0 15.8333C0 16.2013 0.298667 16.5 0.666667 16.5H6.66667V15.53Z" fill="#EB2229"/>
</g>
<defs>
<clipPath id="clip0_1766_2790">
<rect width="16" height="16" fill="white" transform="translate(0 0.5)"/>
</clipPath>
</defs>
</svg>
