<svg width="136" height="118" viewBox="0 0 136 118" fill="none" xmlns="http://www.w3.org/2000/svg">
<path d="M72.18 90.2108C72.7212 90.2108 73.16 89.7526 73.16 89.1874C73.16 88.6222 72.7212 88.1641 72.18 88.1641C71.6387 88.1641 71.2 88.6222 71.2 89.1874C71.2 89.7526 71.6387 90.2108 72.18 90.2108Z" fill="#CFCFCF"/>
<path d="M43.1599 7.89258V12.3828" stroke="#BABABA" stroke-linecap="round" stroke-linejoin="round"/>
<path d="M41 10.1377H45.31" stroke="#BABABA" stroke-linecap="round" stroke-linejoin="round"/>
<path d="M79.1199 7.04673C79.6611 7.04673 80.0999 6.58855 80.0999 6.02336C80.0999 5.45817 79.6611 5 79.1199 5C78.5787 5 78.1399 5.45817 78.1399 6.02336C78.1399 6.58855 78.5787 7.04673 79.1199 7.04673Z" fill="#CFCFCF"/>
<path d="M28.2 86.7334V91.2237" stroke="#BABABA" stroke-linecap="round" stroke-linejoin="round"/>
<path d="M26.05 88.9785H30.35" stroke="#BABABA" stroke-linecap="round" stroke-linejoin="round"/>
<path d="M72.5801 113.048C92.8545 113.048 109.29 111.978 109.29 110.657C109.29 109.336 92.8545 108.266 72.5801 108.266C52.3057 108.266 35.8701 109.336 35.8701 110.657C35.8701 111.978 52.3057 113.048 72.5801 113.048Z" fill="#F2F2F2"/>
<path d="M119.54 6.02344V10.5241" stroke="#BABABA" stroke-linecap="round" stroke-linejoin="round"/>
<path d="M117.38 8.27881H121.69" stroke="#BABABA" stroke-linecap="round" stroke-linejoin="round"/>
<path d="M63.8862 21.1848L61.2171 21.9502C58.5145 16.7378 52.4163 13.9698 46.5442 15.6536L41.6913 17.0451C35.8435 18.722 32.1387 24.301 32.5847 30.1604L29.9155 30.9257C23.2184 32.8461 19.3417 39.84 21.262 46.537L28.2199 70.8018C30.1402 77.4989 37.1341 81.3757 43.8312 79.4553L77.8019 69.7144C84.499 67.794 88.3757 60.8002 86.4554 54.1031L79.4975 29.8383C77.5772 23.1412 70.5833 19.2644 63.8862 21.1848ZM43.0828 21.8981L47.9358 20.5065C51.0902 19.602 54.3438 20.8749 56.17 23.3974L37.656 28.7062C37.8437 25.6062 39.9284 22.8026 43.1071 21.8911L43.0828 21.8981Z" fill="#E5E5E5"/>
<g clip-path="url(#clip0_1512_1542)">
<path d="M44.2647 47.905C46.3519 41.2523 53.3157 37.4308 60.0483 39.2434L89.0711 47.0573C101.599 50.4302 108.101 64.2428 102.719 76.0474L98.0768 86.2291C93.8449 95.5105 83.5555 100.408 73.6833 97.8409L53.3566 92.5542C41.7367 89.5321 35.0114 77.4002 38.6054 65.9442L44.2647 47.905Z" fill="white"/>
<path d="M63.0679 41.3853C64.7969 35.6369 70.7696 32.2921 76.5743 33.8213L80.6094 34.8843C86.5339 36.445 90.1004 42.4812 88.6093 48.4236C87.07 54.5575 80.7558 58.1966 74.6766 56.4535L70.6655 55.3033C64.6969 53.5918 61.2794 47.3313 63.0679 41.3853Z" fill="white"/>
<path d="M57.6622 70.8258C58.9334 68.5426 60.9517 66.7719 63.375 65.8138C65.7984 64.8558 68.4779 64.7693 70.9593 65.5689C73.4407 66.3686 75.5715 68.0053 76.9906 70.2017C78.4096 72.3981 79.0297 75.019 78.7458 77.6204" stroke="#D5D5D5" stroke-linecap="round" stroke-linejoin="round"/>
<path d="M84.6655 65.7712C85.5214 65.6776 86.1393 64.9079 86.0457 64.052C85.9521 63.1962 85.1824 62.5782 84.3266 62.6718C83.4707 62.7654 82.8527 63.5351 82.9463 64.391C83.0399 65.2469 83.8096 65.8648 84.6655 65.7712Z" fill="#D5D5D5"/>
<path d="M60.9704 58.0573C61.8263 57.9637 62.4443 57.194 62.3507 56.3382C62.2571 55.4823 61.4874 54.8644 60.6315 54.958C59.7756 55.0516 59.1577 55.8213 59.2513 56.6771C59.3449 57.533 60.1146 58.151 60.9704 58.0573Z" fill="#D5D5D5"/>
<path d="M95.2976 48.945L90.3719 47.5326C91.3308 41.8991 87.9138 36.3238 82.3086 34.7165L76.2424 32.9771C70.6373 31.3698 64.7851 34.2872 62.6129 39.5729L58.9004 38.5083C52.8828 36.7828 46.5758 40.2788 44.8503 46.2965L37.1967 72.9877C35.4711 79.0054 38.9671 85.3124 44.9848 87.0379L81.382 97.4746C87.3997 99.2002 93.7066 95.7042 95.4322 89.6865L103.086 62.9952C104.811 56.9776 101.315 50.6706 95.2976 48.945ZM75.4999 34.4998L81.9999 36.4998C86.2705 37.7243 89.0934 42.732 88.4999 46.9998L64.4999 39.9998C66.2581 36.066 71.2293 33.2752 75.4999 34.4998ZM93.9999 88.9998C92.657 93.6829 86.683 97.3426 81.9999 95.9998L45.4999 85.4998C40.8168 84.1569 37.4999 78.4998 38.9999 73.4998L46.4999 46.4998C47.8428 41.8166 53.8168 38.6569 58.4999 39.9998L94.9999 50.4998C99.683 51.8426 102.843 57.8167 101.5 62.4998L93.9999 88.9998Z" fill="#D5D5D5"/>
</g>
<defs>
<clipPath id="clip0_1512_1542">
<rect width="60.5824" height="60.5824" fill="white" transform="translate(50.7644 25.6714) rotate(16)"/>
</clipPath>
</defs>
</svg>
