<svg width="16" height="17" viewBox="0 0 16 17" fill="none" xmlns="http://www.w3.org/2000/svg">
<g clip-path="url(#clip0_1274_82)">
<path d="M8.95632 1.53133C8.75944 1.58133 8.47819 1.75008 8.34069 1.89695C8.27194 1.97195 8.16882 2.1282 8.11569 2.24383C8.02819 2.43133 8.01569 2.48445 8.01569 2.73445C8.01569 3.13758 8.00319 3.12508 8.31882 3.06883C8.66882 3.00633 9.72819 3.00008 10.1344 3.05945C10.3032 3.08133 10.4501 3.0907 10.4626 3.0782C10.4751 3.06883 10.4844 2.92195 10.4844 2.7532C10.4844 2.4657 10.4782 2.43758 10.3688 2.21258C10.1563 1.78758 9.78132 1.53445 9.31882 1.51258C9.18757 1.50633 9.02507 1.5157 8.95632 1.53133Z" fill="#790004"/>
<path d="M4.07812 3.32812C4.02813 3.375 4 3.44062 4 3.5C4 3.55938 4.02813 3.625 4.07812 3.67188L4.15313 3.75H5H5.84688L5.92188 3.67188C5.97188 3.625 6 3.55938 6 3.5C6 3.44062 5.97188 3.375 5.92188 3.32812L5.84688 3.25H5H4.15313L4.07812 3.32812Z" fill="#790004"/>
<path d="M8.6127 3.53125C7.49707 3.65938 6.44707 4.0875 5.5752 4.76875L5.27832 5H3.84082H2.40332L2.32832 5.07813C2.2252 5.17813 2.2252 5.32188 2.32832 5.42188L2.40332 5.5H5.5002H8.59707L8.67207 5.57813C8.7752 5.67813 8.7752 5.82188 8.67207 5.92188L8.59707 6H6.48457H4.37207L4.21895 6.24063C4.13457 6.37188 4.03145 6.54063 3.99395 6.61563L3.92207 6.75H2.2877H0.65332L0.57832 6.82813C0.475195 6.92813 0.475195 7.07188 0.57832 7.17188L0.65332 7.25H2.7502H4.84707L4.92207 7.32813C4.97207 7.375 5.0002 7.44063 5.0002 7.5C5.0002 7.55938 4.97207 7.625 4.92207 7.67188C4.84707 7.75 4.84707 7.75 4.17832 7.75H3.50957L3.45957 7.92813C3.43145 8.02813 3.39395 8.19688 3.37207 8.30313L3.33457 8.5H2.49395H1.65332L1.57832 8.57813C1.4752 8.67813 1.4752 8.82188 1.57832 8.92188L1.65332 9H2.45957H3.26582L3.25332 9.375L3.24395 9.75H9.24707H15.2502V9.4875C15.2502 7.92813 14.6064 6.38438 13.4846 5.26563C12.5783 4.35625 11.5064 3.80625 10.2033 3.57813C9.86895 3.51875 8.95957 3.49375 8.6127 3.53125ZM11.0221 4.85938C11.5439 5.05625 12.1252 5.40938 12.5627 5.79688C12.8408 6.0375 13.2127 6.45625 13.2377 6.55625C13.2721 6.67813 13.2252 6.78125 13.1096 6.83438C12.9658 6.90313 12.8627 6.85625 12.6877 6.6375C12.2783 6.125 11.6221 5.65 10.9252 5.3625C10.7408 5.28438 10.5689 5.19688 10.5439 5.16563C10.4783 5.07813 10.4908 4.94375 10.5783 4.85938C10.6752 4.7625 10.7596 4.7625 11.0221 4.85938ZM13.6689 7.31563C13.7596 7.35625 13.9064 7.6625 13.9064 7.80625C13.9064 7.97813 13.6658 8.09375 13.5252 7.9875C13.4502 7.93125 13.3127 7.62813 13.3127 7.52188C13.3127 7.41875 13.4377 7.28125 13.5283 7.28125C13.5627 7.28125 13.6252 7.29688 13.6689 7.31563Z" fill="#790004"/>
<path d="M0.828125 5.07812C0.778125 5.125 0.75 5.19062 0.75 5.25C0.75 5.30938 0.778125 5.375 0.828125 5.42188C0.9 5.49687 0.925 5.5 1.25 5.5C1.575 5.5 1.6 5.49687 1.67188 5.42188C1.775 5.32187 1.775 5.17812 1.67188 5.07812C1.6 5.00312 1.575 5 1.25 5C0.925 5 0.9 5.00312 0.828125 5.07812Z" fill="#790004"/>
<path d="M0.078125 8.57812C0.028125 8.625 0 8.69062 0 8.75C0 8.80938 0.028125 8.875 0.078125 8.92188C0.15 8.99687 0.175 9 0.5 9C0.825 9 0.85 8.99687 0.921875 8.92188C1.025 8.82187 1.025 8.67812 0.921875 8.57812C0.85 8.50312 0.825 8.5 0.5 8.5C0.175 8.5 0.15 8.50312 0.078125 8.57812Z" fill="#790004"/>
<path d="M3.00006 10.2907C2.94069 10.3094 2.81881 10.3969 2.73444 10.4844C2.51256 10.7032 2.45006 10.9376 2.53756 11.2313C2.58756 11.4032 2.84694 11.6626 3.01881 11.7126C3.11881 11.7407 4.55319 11.7501 9.25631 11.7501C16.1469 11.7501 15.5469 11.7719 15.7907 11.5001C16.0719 11.1876 16.0719 10.8126 15.7907 10.5001C15.5469 10.2282 16.1501 10.2501 9.23756 10.2532C4.86569 10.2563 3.07819 10.2657 3.00006 10.2907Z" fill="#790004"/>
<path d="M3.98447 12.9281C4.14697 13.3031 4.2876 13.6063 4.3001 13.6063C4.3126 13.6031 4.36885 13.5406 4.42822 13.4656C4.75322 13.0531 5.34697 12.7531 5.83447 12.75C6.39697 12.75 6.90322 13.0625 7.10947 13.5406L7.2001 13.75H8.9751C9.9751 13.75 10.7501 13.7375 10.7501 13.7219C10.7501 13.6656 11.0407 13.325 11.197 13.1969C11.897 12.6187 12.797 12.6062 13.347 13.1594C13.4626 13.275 13.5501 13.4031 13.6095 13.5406L13.7001 13.75H13.8938C14.0313 13.75 14.1032 13.7344 14.1501 13.6969C14.1845 13.6656 14.347 13.3281 14.5095 12.9469L14.8063 12.25H9.2501H3.69385L3.98447 12.9281Z" fill="#790004"/>
<path d="M5.64085 13.2718C5.14085 13.3843 4.70647 13.7718 4.56272 14.2406C4.43772 14.6499 4.50335 14.9749 4.76585 15.2374C4.96897 15.4406 5.18772 15.5187 5.4846 15.4906C6.29085 15.4156 6.91585 14.5812 6.70647 13.8624C6.6346 13.6124 6.39397 13.3718 6.15647 13.2999C5.9971 13.2531 5.77835 13.2406 5.64085 13.2718Z" fill="#790004"/>
<path d="M12.1408 13.2718C11.6408 13.3843 11.2065 13.7718 11.0627 14.2406C10.9377 14.6499 11.0033 14.9749 11.2658 15.2374C11.469 15.4406 11.6877 15.5187 11.9846 15.4906C12.7908 15.4156 13.4158 14.5812 13.2065 13.8624C13.1346 13.6124 12.894 13.3718 12.6565 13.2999C12.4971 13.2531 12.2783 13.2406 12.1408 13.2718Z" fill="#790004"/>
</g>
<defs>
<clipPath id="clip0_1274_82">
<rect width="16" height="16" fill="white" transform="translate(0 0.5)"/>
</clipPath>
</defs>
</svg>
