<svg width="21" height="20" fill="#000" xmlns="http://www.w3.org/2000/svg">
    <path d="M10.5 12.494a2.5 2.5 0 00-2.5 2.5v5h5v-5a2.5 2.5 0 00-2.5-2.5z" fill="#000" />
    <path
        d="M14.667 14.994v5H18a2.5 2.5 0 002.5-2.5v-7.6c0-.434-.168-.85-.47-1.16l-7.08-7.657a3.333 3.333 0 00-4.897 0L.984 8.731C.674 9.043.5 9.465.5 9.906v7.588a2.5 2.5 0 002.5 2.5h3.333v-5c.016-2.272 1.85-4.128 4.066-4.181 2.289-.056 4.25 1.832 4.268 4.18z"
        fill="#7D7D7D" />
    <path d="M10.5 12.494a2.5 2.5 0 00-2.5 2.5v5h5v-5a2.5 2.5 0 00-2.5-2.5z" fill="#000" />
</svg>