<svg width="13" height="13" viewBox="0 0 13 13" fill="none" xmlns="http://www.w3.org/2000/svg">
<path fill-rule="evenodd" clip-rule="evenodd" d="M2.5 12.9999H11.1667C11.6529 12.9999 12.1192 12.8068 12.463 12.4629C12.8068 12.1191 13 11.6528 13 11.1666V7.49992C13 7.36731 12.9473 7.24013 12.8536 7.14636C12.7598 7.0526 12.6326 6.99992 12.5 6.99992H10.3333V1.79525C10.3333 0.846583 9.26067 0.294583 8.48867 0.845917L8.372 0.92925C8.11653 1.1106 7.81087 1.2078 7.49757 1.20732C7.18428 1.20685 6.87892 1.10871 6.624 0.926583C6.19841 0.623696 5.68903 0.460937 5.16667 0.460938C4.6443 0.460937 4.13492 0.623696 3.70933 0.926583C3.45441 1.10871 3.14906 1.20685 2.83576 1.20732C2.52246 1.2078 2.21681 1.1106 1.96133 0.92925L1.84467 0.845917C1.07267 0.294583 0 0.845917 0 1.79525V10.4999C0 11.163 0.263392 11.7988 0.732233 12.2677C1.20107 12.7365 1.83696 12.9999 2.5 12.9999ZM4.29067 1.73992C4.54663 1.55821 4.85277 1.4606 5.16667 1.4606C5.48057 1.4606 5.7867 1.55821 6.04267 1.73992C6.46714 2.04333 6.97571 2.20673 7.49747 2.20732C8.01923 2.20792 8.52817 2.04569 8.95333 1.74325L9.07 1.65992C9.0949 1.64219 9.12419 1.63165 9.15468 1.62945C9.18516 1.62725 9.21567 1.63348 9.24285 1.64745C9.27003 1.66142 9.29285 1.6826 9.30881 1.70866C9.32477 1.73473 9.33325 1.76469 9.33333 1.79525V11.1666C9.33333 11.4666 9.40533 11.7499 9.53333 11.9999H2.5C2.10218 11.9999 1.72064 11.8419 1.43934 11.5606C1.15804 11.2793 1 10.8977 1 10.4999V1.79525C1.00008 1.76469 1.00856 1.73473 1.02452 1.70866C1.04048 1.6826 1.0633 1.66142 1.09048 1.64745C1.11767 1.63348 1.14817 1.62725 1.17866 1.62945C1.20914 1.63165 1.23844 1.64219 1.26333 1.65992L1.38 1.74325C1.80516 2.04569 2.31411 2.20792 2.83587 2.20732C3.35763 2.20673 3.8662 2.04333 4.29067 1.73992ZM10.3333 11.1666V7.99992H12V11.1666C12 11.3876 11.9122 11.5996 11.7559 11.7558C11.5996 11.9121 11.3877 11.9999 11.1667 11.9999C10.9457 11.9999 10.7337 11.9121 10.5774 11.7558C10.4211 11.5996 10.3333 11.3876 10.3333 11.1666Z" fill="white"/>
</svg>
