<svg width="17" height="17" viewBox="0 0 17 17" fill="none" xmlns="http://www.w3.org/2000/svg">
<path d="M9.5 7C9.5 6.86739 9.44732 6.74022 9.35355 6.64645C9.25979 6.55268 9.13261 6.5 9 6.5H5C4.86739 6.5 4.74021 6.55268 4.64645 6.64645C4.55268 6.74022 4.5 6.86739 4.5 7C4.5 7.13261 4.55268 7.25978 4.64645 7.35355C4.74021 7.44732 4.86739 7.5 5 7.5H9C9.13261 7.5 9.25979 7.44732 9.35355 7.35355C9.44732 7.25978 9.5 7.13261 9.5 7ZM8.83333 9C8.83333 8.86739 8.78065 8.74022 8.68689 8.64645C8.59312 8.55268 8.46594 8.5 8.33333 8.5H5C4.86739 8.5 4.74021 8.55268 4.64645 8.64645C4.55268 8.74022 4.5 8.86739 4.5 9C4.5 9.13261 4.55268 9.25978 4.64645 9.35355C4.74021 9.44732 4.86739 9.5 5 9.5H8.33333C8.46594 9.5 8.59312 9.44732 8.68689 9.35355C8.78065 9.25978 8.83333 9.13261 8.83333 9ZM9 10.5C9.13261 10.5 9.25979 10.5527 9.35355 10.6464C9.44732 10.7402 9.5 10.8674 9.5 11C9.5 11.1326 9.44732 11.2598 9.35355 11.3536C9.25979 11.4473 9.13261 11.5 9 11.5H5C4.86739 11.5 4.74021 11.4473 4.64645 11.3536C4.55268 11.2598 4.5 11.1326 4.5 11C4.5 10.8674 4.55268 10.7402 4.64645 10.6464C4.74021 10.5527 4.86739 10.5 5 10.5H9Z" fill="white"/>
<path fill-rule="evenodd" clip-rule="evenodd" d="M4.5 14.9999H13.1667C13.6529 14.9999 14.1192 14.8068 14.463 14.4629C14.8068 14.1191 15 13.6528 15 13.1666V9.49992C15 9.36731 14.9473 9.24013 14.8536 9.14636C14.7598 9.0526 14.6326 8.99992 14.5 8.99992H12.3333V3.79525C12.3333 2.84658 11.2607 2.29458 10.4887 2.84592L10.372 2.92925C10.1165 3.1106 9.81087 3.2078 9.49757 3.20732C9.18428 3.20685 8.87892 3.10871 8.624 2.92658C8.19841 2.6237 7.68903 2.46094 7.16667 2.46094C6.6443 2.46094 6.13492 2.6237 5.70933 2.92658C5.45441 3.10871 5.14906 3.20685 4.83576 3.20732C4.52246 3.2078 4.21681 3.1106 3.96133 2.92925L3.84467 2.84592C3.07267 2.29458 2 2.84592 2 3.79525V12.4999C2 13.163 2.26339 13.7988 2.73223 14.2677C3.20107 14.7365 3.83696 14.9999 4.5 14.9999ZM6.29067 3.73992C6.54663 3.55821 6.85277 3.4606 7.16667 3.4606C7.48057 3.4606 7.7867 3.55821 8.04267 3.73992C8.46714 4.04333 8.97571 4.20673 9.49747 4.20732C10.0192 4.20792 10.5282 4.04569 10.9533 3.74325L11.07 3.65992C11.0949 3.64219 11.1242 3.63165 11.1547 3.62945C11.1852 3.62725 11.2157 3.63348 11.2429 3.64745C11.27 3.66142 11.2929 3.6826 11.3088 3.70866C11.3248 3.73473 11.3333 3.76469 11.3333 3.79525V13.1666C11.3333 13.4666 11.4053 13.7499 11.5333 13.9999H4.5C4.10218 13.9999 3.72064 13.8419 3.43934 13.5606C3.15804 13.2793 3 12.8977 3 12.4999V3.79525C3.00008 3.76469 3.00856 3.73473 3.02452 3.70866C3.04048 3.6826 3.0633 3.66142 3.09048 3.64745C3.11767 3.63348 3.14817 3.62725 3.17866 3.62945C3.20914 3.63165 3.23844 3.64219 3.26333 3.65992L3.38 3.74325C3.80516 4.04569 4.31411 4.20792 4.83587 4.20732C5.35763 4.20673 5.8662 4.04333 6.29067 3.73992ZM12.3333 13.1666V9.99992H14V13.1666C14 13.3876 13.9122 13.5996 13.7559 13.7558C13.5996 13.9121 13.3877 13.9999 13.1667 13.9999C12.9457 13.9999 12.7337 13.9121 12.5774 13.7558C12.4211 13.5996 12.3333 13.3876 12.3333 13.1666Z" fill="white"/>
</svg>
