<svg width="14" height="15" viewBox="0 0 14 15" fill="none" xmlns="http://www.w3.org/2000/svg">
<g clip-path="url(#clip0_1766_2908)">
<path d="M6.99984 0.5C5.45326 0.501698 3.97052 1.11683 2.87692 2.21042C1.78333 3.30401 1.1682 4.78676 1.1665 6.33333C1.1665 9.4145 6.0665 13.6443 6.623 14.1168L6.99984 14.4353L7.37667 14.1168C7.93317 13.6443 12.8332 9.4145 12.8332 6.33333C12.8315 4.78676 12.2163 3.30401 11.1228 2.21042C10.0292 1.11683 8.54641 0.501698 6.99984 0.5ZM6.99984 9.25C6.42298 9.25 5.85907 9.07894 5.37942 8.75845C4.89978 8.43797 4.52594 7.98244 4.30519 7.44949C4.08443 6.91654 4.02667 6.3301 4.13921 5.76432C4.25175 5.19854 4.52954 4.67884 4.93744 4.27094C5.34535 3.86304 5.86505 3.58525 6.43082 3.47271C6.9966 3.36017 7.58305 3.41793 8.116 3.63868C8.64895 3.85944 9.10447 4.23328 9.42496 4.71292C9.74545 5.19256 9.9165 5.75647 9.9165 6.33333C9.91558 7.1066 9.60799 7.84793 9.06121 8.39471C8.51443 8.94149 7.7731 9.24907 6.99984 9.25Z" fill="#4D4D4D"/>
<path d="M7 8.08325C7.9665 8.08325 8.75 7.29975 8.75 6.33325C8.75 5.36675 7.9665 4.58325 7 4.58325C6.0335 4.58325 5.25 5.36675 5.25 6.33325C5.25 7.29975 6.0335 8.08325 7 8.08325Z" fill="#4D4D4D"/>
</g>
<defs>
<clipPath id="clip0_1766_2908">
<rect width="14" height="14" fill="white" transform="translate(0 0.5)"/>
</clipPath>
</defs>
</svg>
