<svg width="21" height="20" viewBox="0 0 21 20" fill="none" xmlns="http://www.w3.org/2000/svg">
<g clip-path="url(#clip0_1783_840)">
<path d="M3.83332 0H6.33332C8.17426 0 9.66664 1.49238 9.66664 3.33332V5.83332C9.66664 7.67426 8.17426 9.16664 6.33332 9.16664H3.83332C1.99238 9.16668 0.5 7.6743 0.5 5.83332V3.33332C0.5 1.49238 1.99238 0 3.83332 0Z" fill="#7D7D7D"/>
<path d="M14.6667 0H17.1667C19.0076 0 20.5 1.49238 20.5 3.33332V5.83332C20.5 7.67426 19.0076 9.16664 17.1667 9.16664H14.6667C12.8258 9.16664 11.3334 7.67426 11.3334 5.83332V3.33332C11.3333 1.49238 12.8257 0 14.6667 0Z" fill="#7D7D7D"/>
<path d="M3.83332 10.8333H6.33332C8.17426 10.8333 9.66664 12.3256 9.66664 14.1666V16.6666C9.66664 18.5075 8.17426 19.9999 6.33332 19.9999H3.83332C1.99238 19.9999 0.5 18.5075 0.5 16.6666V14.1666C0.5 12.3256 1.99238 10.8333 3.83332 10.8333Z" fill="#7D7D7D"/>
<path d="M14.6667 10.8333H17.1667C19.0076 10.8333 20.5 12.3256 20.5 14.1666V16.6666C20.5 18.5075 19.0076 19.9999 17.1667 19.9999H14.6667C12.8258 19.9999 11.3334 18.5075 11.3334 16.6666V14.1666C11.3333 12.3256 12.8257 10.8333 14.6667 10.8333Z" fill="#7D7D7D"/>
</g>
<defs>
<clipPath id="clip0_1783_840">
<rect width="20" height="20" fill="white" transform="translate(0.5)"/>
</clipPath>
</defs>
</svg>
