<svg width="21" height="20" viewBox="0 0 21 20" fill="none" xmlns="http://www.w3.org/2000/svg">
<path d="M8 18.3333C8 19.2542 7.25417 20 6.33333 20C5.4125 20 4.66667 19.2542 4.66667 18.3333C4.66667 17.4125 5.4125 16.6667 6.33333 16.6667C7.25417 16.6667 8 17.4125 8 18.3333ZM14.6667 16.6667C13.7458 16.6667 13 17.4125 13 18.3333C13 19.2542 13.7458 20 14.6667 20C15.5875 20 16.3333 19.2542 16.3333 18.3333C16.3333 17.4125 15.5875 16.6667 14.6667 16.6667ZM20.5 4.16667C20.5 6.4675 18.6342 8.33333 16.3333 8.33333C14.0325 8.33333 12.1667 6.4675 12.1667 4.16667C12.1667 1.86583 14.0325 0 16.3333 0C18.6342 0 20.5 1.86583 20.5 4.16667ZM18 5.83333C18.325 5.50833 18.325 4.98 18 4.655L17.1667 3.82167V2.5C17.1667 2.04 16.7933 1.66667 16.3333 1.66667C15.8733 1.66667 15.5 2.04 15.5 2.5V4.16667C15.5 4.3875 15.5875 4.6 15.7442 4.75583L16.8217 5.83333C17.1467 6.15833 17.675 6.15833 18 5.83333ZM16.3333 10.0958C13.1167 10.0958 10.5 7.47833 10.5 4.2625C10.5 3.64833 10.5967 3.05667 10.7742 2.5H4.86833L4.83417 2.20667C4.685 0.948333 3.6175 0 2.35167 0H1.33333C0.8725 0 0.5 0.373333 0.5 0.833333C0.5 1.29333 0.8725 1.66667 1.33333 1.66667H2.35167C2.77417 1.66667 3.13 1.98333 3.17917 2.4025L4.32583 12.1542C4.57333 14.2517 6.3525 15.8342 8.46417 15.8342H16.3333C16.7942 15.8342 17.1667 15.4608 17.1667 15.0008C17.1667 14.5408 16.7942 14.1675 16.3333 14.1675H8.46417C7.3875 14.1675 6.46083 13.4792 6.11417 12.5008H15.6342C17.6133 12.5008 19.3317 11.0925 19.7192 9.15167L19.7533 8.97917C18.7908 9.67917 17.6117 10.0967 16.3333 10.0967V10.0958Z" fill="#7D7D7D"/>
</svg>
