<svg width="16" height="17" viewBox="0 0 16 17" fill="none" xmlns="http://www.w3.org/2000/svg">
<path d="M6.73125 0.546875C6.4 0.61875 6.0875 0.76875 5.80625 0.99375C5.56562 1.19062 5.525 1.20937 5.31563 1.24688C4.96875 1.30938 4.625 1.49375 4.35938 1.7625C4.10313 2.01875 3.9625 2.26875 3.875 2.6125C3.84063 2.74687 3.75 2.97187 3.67188 3.11562C3.59375 3.25625 3.53125 3.38125 3.53125 3.39062C3.53125 3.4 5.54375 3.40625 8 3.40625C10.4594 3.40625 12.4688 3.4 12.4688 3.39062C12.4688 3.38125 12.4062 3.25625 12.3281 3.11562C12.25 2.97187 12.1594 2.74375 12.125 2.60938C11.95 1.92188 11.3594 1.36562 10.6844 1.24688C10.4781 1.2125 10.4313 1.19062 10.2594 1.04375C10.0125 0.8375 9.79688 0.7125 9.48438 0.60625C9.2625 0.528125 9.19063 0.51875 8.84375 0.51875C8.5 0.51875 8.425 0.528125 8.22188 0.6C8.00313 0.68125 7.98438 0.68125 7.87813 0.6375C7.57812 0.509375 7.08125 0.471875 6.73125 0.546875ZM7.5 2V2.46875H7H6.5V2V1.53125H7H7.5V2ZM9.5 2V2.46875H9H8.5V2V1.53125H9H9.5V2Z" fill="#0066B7"/>
<path d="M2.125 4.8125V5.28125H2.66875H3.20938L3.41562 6.31875C3.64062 7.44063 3.69375 7.6 3.92813 7.87187C4.08125 8.05312 4.36875 8.23438 4.61875 8.3125C4.8125 8.37187 4.91563 8.375 7.99688 8.375C10.8313 8.375 11.1938 8.36875 11.3469 8.325C11.6188 8.24375 11.8125 8.13125 12 7.94062C12.2969 7.64687 12.3469 7.50625 12.5844 6.31875L12.7906 5.28125H13.3313H13.875V4.8125V4.34375H8H2.125V4.8125Z" fill="#0066B7"/>
<path d="M14.2187 8.65312C14.0062 8.72187 13.8375 8.87187 12.7281 9.97813C11.5531 11.15 11.5312 11.1719 11.5312 11.2969C11.5281 11.9406 11.0937 12.6156 10.4969 12.9C10.3531 12.9688 10.1594 13.0406 10.0687 13.0594C9.9625 13.0812 9.38437 13.0938 8.48437 13.0938H7.0625V12.625V12.1562H8.39062C9.675 12.1562 9.72187 12.1531 9.89687 12.0875C10.1375 11.9969 10.375 11.7594 10.4687 11.5094C10.5594 11.2656 10.5469 10.9281 10.4375 10.7031C10.3406 10.5062 10.15 10.3156 9.95312 10.2156L9.79687 10.1406L6.82812 10.1312L3.85937 10.125L2.99375 10.9906L2.125 11.8594L3.60312 13.3375L5.07812 14.8125L5.32812 14.5625L5.57812 14.3125H8.45312H11.3281L13.3781 12.2562C15.6781 9.95312 15.5469 10.1125 15.5469 9.64062C15.5469 9.34062 15.4781 9.17188 15.2781 8.95312C15.0719 8.73125 14.8844 8.64687 14.5625 8.6375C14.4156 8.63125 14.2625 8.6375 14.2187 8.65312Z" fill="#0066B7"/>
<path d="M0.94375 13.0406L0.4375 13.5469L1.91562 15.025L3.39062 16.5L3.90625 15.9844L4.42188 15.4688L2.95312 14C2.14688 13.1906 1.47812 12.5312 1.46875 12.5312C1.45938 12.5312 1.225 12.7594 0.94375 13.0406Z" fill="#0066B7"/>
</svg>
