<svg width="16" height="11" viewBox="0 0 16 11" fill="none" xmlns="http://www.w3.org/2000/svg">
<path d="M14.8748 0.82488C14.731 0.884254 11.381 2.40925 10.9748 2.59988C10.6623 2.74675 10.4748 3.10925 10.5123 3.48738C10.5248 3.59363 10.5216 3.6905 10.5091 3.69675C10.4935 3.70613 10.3841 3.68113 10.2654 3.6405C9.29351 3.3155 7.28101 3.58738 5.06226 4.3405C4.76226 4.4405 4.51226 4.52175 4.50601 4.5155C4.50289 4.51238 4.48414 4.42488 4.46539 4.31863C4.40289 3.96238 4.51851 3.50925 4.76851 3.13425C4.84351 3.02175 4.90601 2.91863 4.90601 2.90925C4.90601 2.87488 4.60914 2.59363 4.57476 2.59363C4.52164 2.59363 4.28726 2.93113 4.17164 3.17175C3.97476 3.58425 3.90914 3.98425 3.97164 4.39675C3.99351 4.54675 4.01539 4.68425 4.01539 4.69675C4.01539 4.71238 3.90289 4.77175 3.76539 4.82488C3.62789 4.88113 3.37476 4.99363 3.20289 5.07175C3.03101 5.14675 2.88726 5.20925 2.88414 5.20613C2.87789 5.203 2.84976 5.0655 2.81539 4.903C2.72164 4.45613 2.68726 4.05613 2.68726 3.47488C2.68726 2.8905 2.66226 2.76863 2.50289 2.5655C2.45289 2.503 2.33726 2.40925 2.24351 2.35613C2.09976 2.278 2.04664 2.2655 1.84351 2.2655C1.66226 2.2655 1.57789 2.28425 1.48101 2.33425C1.31539 2.42175 1.17164 2.5655 1.08414 2.73113C1.01851 2.85613 1.01539 2.89675 1.00601 3.8905C0.999763 4.56238 0.984138 4.93425 0.962263 4.95925C0.943513 4.98113 0.887263 4.99988 0.837263 4.99988C0.596638 4.99988 0.337263 5.203 0.265388 5.453C0.196638 5.68113 0.259138 6.20613 0.421638 6.76863C0.437263 6.81238 0.406013 6.87488 0.318513 6.98113C0.0403884 7.3155 -0.0502366 7.64363 0.0435134 7.94363C0.346638 8.88425 1.17789 9.803 2.19351 10.3155C3.54351 10.9936 5.23726 11.0968 6.82789 10.5968C9.03101 9.89988 10.6529 8.228 11.0529 6.23425C11.1623 5.67488 11.1185 4.86863 10.9404 4.29363L10.8841 4.103L11.0123 4.16863C11.1091 4.2155 11.1998 4.23113 11.3748 4.23113C11.606 4.23113 11.6185 4.22488 12.1873 3.94675C12.506 3.7905 13.4185 3.34363 14.2185 2.95613C15.0185 2.5655 15.7123 2.20925 15.7591 2.16238C15.9185 2.01238 15.981 1.853 15.981 1.60925C15.981 1.43113 15.9654 1.35925 15.8966 1.228C15.6779 0.806129 15.2873 0.649879 14.8748 0.82488ZM2.09664 2.86863L2.17789 2.95925L2.19664 3.67488C2.22164 4.73738 2.35914 5.428 2.68414 6.11238C3.01226 6.79988 3.47164 7.30613 4.04039 7.61238L4.22789 7.71238L4.10601 7.74675C3.88414 7.81238 3.08414 7.96238 2.76226 8.003C2.48414 8.03738 2.42164 8.03738 2.23101 7.9905C1.58414 7.83113 1.14976 7.378 0.896638 6.59363C0.787263 6.25613 0.696638 5.64363 0.746638 5.5655C0.762263 5.54363 0.840388 5.51238 0.921638 5.49675C1.16226 5.453 1.32476 5.33738 1.41851 5.14988L1.49976 4.98738V4.00925C1.49976 2.93738 1.50601 2.89363 1.68101 2.79675C1.80914 2.72488 1.99664 2.75613 2.09664 2.86863ZM11.631 3.11863C11.7373 3.22488 11.7748 3.41238 11.7123 3.53113C11.6623 3.62175 11.4841 3.74988 11.4029 3.74988C11.3529 3.74988 11.356 3.7405 11.4216 3.67175C11.6341 3.46238 11.3435 3.11863 11.106 3.29675C11.0216 3.36238 10.9935 3.353 11.0154 3.27175C11.0435 3.18738 11.1498 3.0655 11.2341 3.028C11.3466 2.978 11.5341 3.01863 11.631 3.11863ZM9.76539 4.03113C10.0591 4.07488 10.256 4.14363 10.3591 4.23738C10.431 4.303 10.4435 4.33425 10.4279 4.43113C10.406 4.55925 10.2435 4.80613 10.0779 4.96863L9.96851 5.07488V4.98738C9.96851 4.803 9.89351 4.6405 9.73414 4.48425C9.43101 4.178 9.04039 4.16863 8.71851 4.45925C8.55601 4.60613 8.52164 4.68113 8.42164 5.13425C8.32789 5.56863 8.16226 5.90613 7.86226 6.278C7.72476 6.453 7.66851 6.49363 7.42164 6.60925C7.01851 6.79988 6.18726 7.12175 5.61539 7.31238L5.12164 7.47488L4.89664 7.41863C4.40601 7.29988 3.83101 6.93113 3.52789 6.54363C3.30914 6.25925 3.06226 5.82175 3.06226 5.71238C3.06226 5.68425 3.46539 5.4905 3.93414 5.29675C4.14039 5.20925 4.23414 5.18425 4.24351 5.21238C4.25289 5.2405 4.49039 5.58425 4.54976 5.653C4.55601 5.65925 4.64351 5.5905 4.74976 5.49988L4.93726 5.33738L4.82789 5.18738C4.76851 5.10613 4.71851 5.02488 4.71851 5.00925C4.71851 4.978 5.64664 4.66238 6.22476 4.49988C6.94039 4.29675 7.92789 4.09988 8.57789 4.03425C8.93726 3.99675 9.51226 3.99675 9.76539 4.03113ZM9.39039 4.828C9.43726 4.87175 9.46851 4.93738 9.46851 4.9905C9.46539 5.13738 9.39039 5.45613 9.33726 5.53425C9.29039 5.603 8.83726 5.90613 8.70601 5.95613C8.65289 5.978 8.65289 5.97488 8.70289 5.87488C8.79039 5.70613 8.87476 5.4405 8.93726 5.1405C8.97789 4.93738 9.01226 4.84675 9.06226 4.80613C9.16226 4.72488 9.29976 4.73425 9.39039 4.828ZM1.07164 7.89988L1.23414 8.07175L1.09351 8.04988C0.871638 8.0155 0.668513 7.9405 0.577888 7.85613C0.506013 7.7905 0.496638 7.75925 0.509138 7.66863C0.518513 7.60925 0.559138 7.51238 0.593513 7.44988L0.662263 7.34363L0.784138 7.53425C0.852888 7.6405 0.981013 7.803 1.07164 7.89988Z" fill="#F57726"/>
</svg>
