<svg width="16" height="17" viewBox="0 0 16 17" fill="none" xmlns="http://www.w3.org/2000/svg">
<g clip-path="url(#clip0_1766_2901)">
<path d="M13.2962 2.26144L8.00016 0.506104L2.70416 2.26144C2.30515 2.39371 1.95795 2.64836 1.7119 2.98919C1.46584 3.33003 1.33344 3.73973 1.3335 4.1601V8.5001C1.3335 13.5161 7.46683 16.2861 7.7295 16.4014L7.9655 16.5061L8.21083 16.4248C8.47483 16.3368 14.6668 14.2181 14.6668 8.5001V4.1601C14.6669 3.73973 14.5345 3.33003 14.2884 2.98919C14.0424 2.64836 13.6952 2.39371 13.2962 2.26144ZM8.29616 9.8261C8.17962 9.94343 8.04093 10.0364 7.88815 10.0997C7.73536 10.163 7.57153 10.1953 7.40616 10.1948H7.38416C7.21542 10.1922 7.04896 10.1554 6.89484 10.0867C6.74072 10.0179 6.60215 9.91861 6.4875 9.79477L4.95016 8.19477L5.91216 7.27344L7.40816 8.83344L10.8622 5.37944L11.8048 6.3221L8.29616 9.8261Z" fill="#EB2229"/>
</g>
<defs>
<clipPath id="clip0_1766_2901">
<rect width="16" height="16" fill="white" transform="translate(0 0.5)"/>
</clipPath>
</defs>
</svg>
