<svg width="16" height="15" viewBox="0 0 16 15" fill="none" xmlns="http://www.w3.org/2000/svg">
<path d="M5.40619 0.0217067C5.14369 0.127957 5.07181 0.293582 5.04369 0.862332C5.01869 1.38108 5.04681 1.48421 5.26556 1.60921C5.56244 1.78421 5.91244 1.64671 5.99681 1.31546C6.01556 1.25296 6.03744 1.01233 6.04994 0.781082C6.06869 0.371707 6.06556 0.356082 5.99681 0.252957C5.95619 0.193582 5.88431 0.118582 5.83744 0.0842067C5.75306 0.0217067 5.49681 -0.0157932 5.40619 0.0217067Z" fill="#006C20"/>
<path d="M10.2342 0.0436525C10.1186 0.0936526 9.97798 0.253028 9.94985 0.362403C9.93735 0.406152 9.94048 0.628027 9.95298 0.859277C9.97798 1.34053 10.0311 1.49365 10.2186 1.61865C10.3592 1.7124 10.6249 1.70615 10.7717 1.5999C10.9499 1.47178 10.9811 1.35615 10.9561 0.862402C10.9311 0.321778 10.878 0.181153 10.6561 0.0686525C10.4999 -0.00947237 10.3717 -0.0157224 10.2342 0.0436525Z" fill="#006C20"/>
<path d="M2.12493 0.87802C1.86556 0.981145 1.73431 1.31864 1.85931 1.56239C1.95306 1.74364 2.78118 2.66864 2.91243 2.74052C3.12493 2.85927 3.33431 2.81864 3.51243 2.62802C3.62806 2.50927 3.65931 2.25302 3.58118 2.10302C3.55618 2.04989 3.32806 1.76864 3.07806 1.48114C2.61243 0.937395 2.49681 0.843645 2.29681 0.84677C2.24681 0.84677 2.16868 0.862395 2.12493 0.87802Z" fill="#006C20"/>
<path d="M13.4844 0.887431C13.3876 0.928056 12.5063 1.92181 12.4219 2.08431C12.3501 2.21868 12.3626 2.44056 12.4469 2.56243C12.5938 2.78431 12.9313 2.86868 13.1188 2.73118C13.2282 2.64993 14.0844 1.66868 14.1438 1.55618C14.2063 1.43743 14.1969 1.23743 14.1251 1.09368C14.0157 0.878056 13.7188 0.784306 13.4844 0.887431Z" fill="#006C20"/>
<path d="M6.92822 2.46562C6.54072 2.61875 6.31885 2.95312 6.29072 3.41875L6.27197 3.6875H8.0001H9.72822L9.7126 3.4125C9.6876 2.9875 9.51885 2.7 9.18447 2.51562L9.01572 2.42188L8.04697 2.41562C7.15635 2.40937 7.06572 2.4125 6.92822 2.46562Z" fill="#006C20"/>
<path d="M0.856344 3.9717C0.534469 4.06233 0.400094 4.4967 0.615719 4.74983C0.743844 4.90608 0.846969 4.94045 1.28759 4.97483C1.75634 5.0092 1.86884 4.9967 2.00009 4.8842C2.26572 4.66233 2.25009 4.2967 1.96572 4.08733C1.84697 3.99983 1.05009 3.91545 0.856344 3.9717Z" fill="#006C20"/>
<path d="M14.35 3.99993C14.1969 4.01243 14.0969 4.04055 14.0375 4.0843C13.7344 4.3093 13.7344 4.69368 14.0406 4.91868C14.1219 4.97805 14.1688 4.9843 14.525 4.97805C15.0469 4.96555 15.2125 4.93118 15.3375 4.80305C15.5125 4.6218 15.5406 4.44993 15.4344 4.23118C15.3344 4.01868 15.2219 3.96868 14.8719 3.9718C14.7094 3.97493 14.475 3.98743 14.35 3.99993Z" fill="#006C20"/>
<path d="M6.01553 4.7375C5.02803 4.89375 4.17803 5.34063 3.47803 6.075C2.77803 6.80625 2.36865 7.71875 2.2624 8.7875L2.24365 9H3.37803H4.51553L4.60928 8.87188C4.75303 8.675 5.20928 8.25 5.46865 8.06563C5.97178 7.7125 6.53115 7.46875 7.1249 7.34062C7.59053 7.24063 8.40615 7.24063 8.86553 7.3375C9.81865 7.54375 10.6968 8.0625 11.2905 8.76562L11.4843 8.99687L12.603 9H13.7187V8.83437C13.7187 8.59062 13.6312 8.12187 13.5249 7.78125C13.0405 6.25 11.778 5.11875 10.153 4.75938C9.8249 4.6875 6.44678 4.66875 6.01553 4.7375Z" fill="#006C20"/>
<path d="M7.51885 8.28115C7.04072 8.35615 6.49072 8.5749 6.09697 8.84365C5.8376 9.01553 5.50322 9.3374 5.30947 9.59053C5.09072 9.87803 4.82822 10.4249 4.72822 10.7968C4.65635 11.0749 4.64697 11.1655 4.64697 11.6249C4.64697 12.0843 4.65635 12.1749 4.72822 12.453C4.82822 12.8249 5.09072 13.3718 5.30947 13.6593C5.50322 13.9124 5.8376 14.2343 6.09697 14.4062C6.37822 14.5999 6.83135 14.803 7.17822 14.8968C7.4501 14.9687 7.54385 14.978 8.0001 14.978C8.45947 14.978 8.5501 14.9687 8.82822 14.8968C9.5626 14.6999 10.2407 14.2499 10.6907 13.6593C10.9095 13.3718 11.172 12.8249 11.272 12.453C11.3438 12.1749 11.3532 12.0843 11.3532 11.6249C11.3532 11.1655 11.3438 11.0749 11.272 10.7968C11.172 10.4249 10.9095 9.87803 10.6907 9.59053C10.2407 8.99678 9.55322 8.54365 8.82822 8.35615C8.47822 8.26865 7.84385 8.23115 7.51885 8.28115ZM9.6251 10.2187C9.77197 10.2593 9.9251 10.4218 9.96572 10.578C10.0345 10.8374 10.0188 10.8593 8.96572 11.9343C8.40947 12.503 7.94385 12.953 7.86885 12.9905C7.57197 13.153 7.46572 13.0937 6.73135 12.3718C6.07197 11.7155 5.97822 11.5905 6.00947 11.3687C6.05635 11.0312 6.45635 10.8249 6.73447 10.9968C6.7876 11.028 7.0126 11.2312 7.23447 11.4468L7.64072 11.8405L8.4251 11.0593C9.3001 10.1843 9.35947 10.1437 9.6251 10.2187Z" fill="#006C20"/>
<path d="M0.796931 10.0436C0.503181 10.1717 0.415681 10.5436 0.612556 10.8061C0.740681 10.9717 0.843806 10.9999 1.33756 10.9999H1.77193L1.96568 11.2905C2.19381 11.6405 2.36881 11.8155 2.57818 11.9124C2.71256 11.9749 2.79693 11.9842 3.18756 11.9936L3.64068 12.0061L3.64381 11.5405C3.65006 10.9749 3.73443 10.5186 3.92193 10.053C3.94381 10.003 3.85943 9.99985 2.41881 9.99985C1.21881 10.003 0.868806 10.0124 0.796931 10.0436Z" fill="#006C20"/>
<path d="M12.0784 10.053C12.2659 10.5186 12.3503 10.9749 12.3565 11.5405L12.3597 12.0061L12.8128 11.9936C13.2034 11.9842 13.2878 11.9749 13.4222 11.9124C13.6315 11.8155 13.8065 11.6405 14.0347 11.2905L14.2253 11.003L14.7034 10.9936C15.1315 10.9842 15.194 10.978 15.269 10.9186C15.4065 10.8186 15.4753 10.7061 15.4909 10.5561C15.5128 10.3749 15.444 10.2186 15.294 10.1061L15.1784 10.0155L13.6159 10.0061C12.1315 9.99985 12.0565 9.99985 12.0784 10.053Z" fill="#006C20"/>
</svg>
