<svg width="21" height="20" viewBox="0 0 21 20" fill="none" xmlns="http://www.w3.org/2000/svg">
<g clip-path="url(#clip0_1783_861)">
<path d="M10.5 5.83333V0.383333C11.2608 0.671667 11.9608 1.11583 12.5542 1.70833L15.4575 4.61333C16.0508 5.20583 16.495 5.90583 16.7833 6.66667H11.3333C10.8733 6.66667 10.5 6.2925 10.5 5.83333ZM16.75 15C19.2867 15 20.3158 14.3242 20.5 14.1008V12.0833C20.5 11.3475 18.9583 10.8333 16.75 10.8333C14.5417 10.8333 13 11.3475 13 12.0833V14.1008C13.1842 14.3242 14.2133 15 16.75 15ZM16.75 20C19.1325 20 20.5 19.3417 20.5 18.1942V16.0192C19.6008 16.4075 18.3583 16.6667 16.75 16.6667C15.1417 16.6667 13.8992 16.4075 13 16.0192V18.1942C13 19.3417 14.3675 20 16.75 20ZM11.3333 18.1942V12.0833C11.3333 11.2067 11.8617 9.16667 16.75 9.16667C16.8958 9.16667 17.025 9.17417 17.1633 9.1775C17.1592 8.84333 17.1533 8.41833 17.1475 8.33333H11.3342C9.95583 8.33333 8.83417 7.21167 8.83417 5.83333V0.02C8.7 0.0108333 8.56583 0 8.43 0H4.66667C2.36917 0 0.5 1.86917 0.5 4.16667V15.8333C0.5 18.1308 2.36917 20 4.66667 20H11.9592C11.4167 19.2983 11.3333 18.5608 11.3333 18.1942ZM5.5 15.8333C5.5 16.2933 5.1275 16.6667 4.66667 16.6667C4.20583 16.6667 3.83333 16.2933 3.83333 15.8333V13.3333C3.83333 12.8733 4.20583 12.5 4.66667 12.5C5.1275 12.5 5.5 12.8733 5.5 13.3333V15.8333ZM8.83333 15.8333C8.83333 16.2933 8.46083 16.6667 8 16.6667C7.53917 16.6667 7.16667 16.2933 7.16667 15.8333V10C7.16667 9.54 7.53917 9.16667 8 9.16667C8.46083 9.16667 8.83333 9.54 8.83333 10V15.8333Z" fill="#7D7D7D"/>
</g>
<defs>
<clipPath id="clip0_1783_861">
<rect width="20" height="20" fill="white" transform="translate(0.5)"/>
</clipPath>
</defs>
</svg>
