<svg width="8" height="15" viewBox="0 0 8 15" fill="none" xmlns="http://www.w3.org/2000/svg">
<path d="M0.515267 13.0419C0.455122 13.1056 0.408102 13.1804 0.376891 13.2623C0.345681 13.3441 0.330891 13.4312 0.333367 13.5188C0.335844 13.6063 0.355537 13.6925 0.391323 13.7724C0.427109 13.8523 0.478286 13.9244 0.541934 13.9846C0.605581 14.0447 0.680452 14.0917 0.762271 14.123C0.84409 14.1542 0.931255 14.169 1.01879 14.1665C1.10632 14.164 1.19251 14.1443 1.27244 14.1085C1.35236 14.0727 1.42446 14.0216 1.4846 13.9579L7.15127 7.95792C7.26829 7.83414 7.3335 7.67026 7.3335 7.49992C7.3335 7.32958 7.26829 7.1657 7.15127 7.04192L1.4846 1.04125C1.42485 0.976208 1.35278 0.923686 1.27256 0.886736C1.19234 0.849787 1.10558 0.829145 1.01732 0.826009C0.929055 0.822874 0.841048 0.837307 0.758411 0.868471C0.675773 0.899635 0.60015 0.946906 0.535937 1.00754C0.471723 1.06818 0.420198 1.14097 0.384353 1.22169C0.348509 1.30241 0.329061 1.38944 0.327138 1.47774C0.325215 1.56604 0.340855 1.65384 0.373151 1.73604C0.405448 1.81824 0.453755 1.89321 0.515268 1.95658L5.74993 7.49992L0.515267 13.0419Z" fill="#222222"/>
</svg>
