<svg width="16" height="17" viewBox="0 0 16 17" fill="none" xmlns="http://www.w3.org/2000/svg">
<g clip-path="url(#clip0_1922_1135)">
<path d="M14.6667 9.83336V9.1667C14.6667 7.69603 13.4707 6.50003 12 6.50003C10.5293 6.50003 9.33333 7.69603 9.33333 9.1667V9.83336H8V14.5C8 15.6027 8.89733 16.5 10 16.5H14C15.1027 16.5 16 15.6027 16 14.5V9.83336H14.6667ZM10.6667 9.1667C10.6667 8.43136 11.2647 7.83336 12 7.83336C12.7353 7.83336 13.3333 8.43136 13.3333 9.1667V9.83336H10.6667V9.1667ZM12.6667 13.8334H11.3333V12.5H12.6667V13.8334ZM7.36067 16.5127H2.66667C1.564 16.5127 0.666667 15.6154 0.666667 14.5127V9.2907C1.256 9.63336 1.938 9.8327 2.66667 9.8327H3.33333C4.04133 9.8327 4.73 9.6407 5.33333 9.28736C5.74467 9.52803 6.19733 9.68736 6.66667 9.7687V14.4994C6.66667 15.2587 6.932 15.952 7.36067 16.5127ZM0 5.83336L0.016 5.02203L1.46533 0.512695H4.66667V3.83336H6V0.512695H10V3.83336H11.3333V0.512695H14.5347L16 5.1667V5.83336C16 6.38736 15.83 6.90136 15.54 7.32803C14.872 6.04803 13.5413 5.1667 12 5.1667C10.0213 5.1667 8.374 6.6107 8.05533 8.50003H7.33333C6.53333 8.50003 5.82267 8.1387 5.33333 7.5787C4.844 8.1387 4.13333 8.50003 3.33333 8.50003H2.66667C1.196 8.50003 0 7.30403 0 5.83336Z" fill="#EB2229"/>
</g>
<defs>
<clipPath id="clip0_1922_1135">
<rect width="16" height="16" fill="white" transform="translate(0 0.5)"/>
</clipPath>
</defs>
</svg>
