<svg width="16" height="17" viewBox="0 0 16 17" fill="none" xmlns="http://www.w3.org/2000/svg">
<g clip-path="url(#clip0_1766_2893)">
<path d="M2.42553 6.49994C2.01353 6.49994 1.69353 6.12794 1.7662 5.72261C2.00553 4.38861 2.6702 3.14861 3.66953 2.21194C4.95953 1.00194 6.6442 0.398607 8.4202 0.51394C11.7675 0.72994 14.3822 3.64394 14.3329 7.12527C14.3062 9.00394 12.7402 10.5006 10.8609 10.5006H8.9062C8.6662 10.7313 8.3422 10.8746 7.98353 10.8746C7.24686 10.8746 6.6502 10.2779 6.6502 9.54127C6.6502 8.80461 7.24686 8.20794 7.98353 8.20794C8.58886 8.20794 9.0942 8.61394 9.25686 9.16727H10.8609C12.0182 9.16727 12.9869 8.24527 12.9995 7.08861C13.0302 4.32461 10.9695 2.01594 8.3342 1.84527C6.93486 1.75861 5.6002 2.23061 4.58086 3.18594C3.77486 3.94127 3.25553 4.90861 3.07353 5.97127C3.0202 6.28194 2.7402 6.50127 2.42553 6.50127V6.49994ZM8.0002 11.8333C5.53686 11.8333 3.40553 13.3613 2.69686 15.6346C2.63353 15.8373 2.6702 16.0579 2.7962 16.2286C2.9222 16.3993 3.12153 16.4999 3.33353 16.4999H12.6669C12.8789 16.4999 13.0782 16.3993 13.2042 16.2286C13.3302 16.0579 13.3669 15.8373 13.3035 15.6346C12.5949 13.3613 10.4635 11.8333 8.0002 11.8333ZM9.9562 7.83327H11.5255C11.6155 7.51527 11.6669 7.18061 11.6669 6.83327C11.6669 4.80794 10.0255 3.16661 8.0002 3.16661C5.97486 3.16661 4.33353 4.80794 4.33353 6.83327C4.33353 7.82727 4.73086 8.72727 5.37286 9.38794C5.45353 8.01061 6.58553 6.91527 7.98353 6.91527C8.77753 6.91527 9.47753 7.27594 9.95686 7.83327H9.9562Z" fill="#EB2229"/>
</g>
<defs>
<clipPath id="clip0_1766_2893">
<rect width="16" height="16" fill="white" transform="translate(0 0.5)"/>
</clipPath>
</defs>
</svg>
