<svg width="16" height="17" viewBox="0 0 16 17" fill="none" xmlns="http://www.w3.org/2000/svg">
<path d="M14 4.50016H3.33333C2.76067 4.50016 2.21867 4.25216 1.84333 3.83416C2.21 3.42483 2.74267 3.16683 3.33333 3.16683H15.3333C16.2053 3.16283 16.2047 1.83683 15.3333 1.8335H3.33333C1.49267 1.8335 0 3.32616 0 5.16683V11.8335C0 13.6742 1.49267 15.1668 3.33333 15.1668H14C15.1047 15.1668 16 14.2715 16 13.1668V6.50016C16 5.3955 15.1047 4.50016 14 4.50016ZM13.3333 10.5002C12.4613 10.4962 12.4613 9.17083 13.3333 9.16683C14.2053 9.17083 14.2053 10.4962 13.3333 10.5002Z" fill="#EB2229"/>
</svg>
